<svg width="319" height="248" viewBox="0 0 319 248" fill="none" xmlns="http://www.w3.org/2000/svg">
<g filter="url(#filter0_d_10_670)">
<rect y="120.869" width="286" height="140" rx="25" transform="rotate(-25 0 120.869)" fill="#F3F3F3"/>
<path d="M110.631 116.064L108.668 111.855L116.531 108.188L127.622 131.974L122.924 134.164L113.796 114.588L110.631 116.064ZM138.872 102.577L128.301 107.507L130.902 113.086C131.095 112.307 131.535 111.546 132.221 110.803C132.897 110.037 133.713 109.431 134.67 108.985C136.41 108.174 138.013 107.89 139.477 108.134C140.941 108.378 142.203 108.982 143.261 109.945C144.309 110.886 145.147 112.031 145.776 113.379C146.942 115.881 147.163 118.228 146.437 120.42C145.733 122.601 144.065 124.306 141.434 125.533C138.954 126.69 136.685 126.993 134.628 126.443C132.571 125.893 130.978 124.663 129.849 122.753L134.286 120.684C134.888 121.462 135.647 121.955 136.565 122.163C137.505 122.361 138.507 122.211 139.573 121.714C140.856 121.115 141.637 120.262 141.914 119.153C142.191 118.043 142.02 116.825 141.402 115.499C140.773 114.15 139.959 113.285 138.96 112.903C137.973 112.49 136.838 112.582 135.554 113.181C134.641 113.607 133.986 114.19 133.59 114.931C133.194 115.672 133.043 116.484 133.137 117.367L128.765 119.405L122.253 105.441L137 98.564L138.872 102.577ZM147.442 107.876C145.687 104.113 144.987 100.851 145.342 98.0905C145.718 95.3198 147.483 93.1992 150.637 91.7284C153.791 90.2577 156.539 90.2738 158.882 91.7766C161.246 93.2692 163.306 95.897 165.061 99.66C166.826 103.445 167.525 106.733 167.159 109.526C166.814 112.308 165.065 114.434 161.911 115.905C158.757 117.376 155.993 117.354 153.618 115.84C151.266 114.315 149.207 111.66 147.442 107.876ZM160.558 101.76C159.808 100.15 159.07 98.8521 158.345 97.8659C157.632 96.8479 156.798 96.1379 155.843 95.736C154.909 95.324 153.833 95.402 152.615 95.97C151.397 96.538 150.635 97.3171 150.329 98.3072C150.044 99.2873 150.052 100.383 150.352 101.593C150.663 102.772 151.194 104.167 151.945 105.776C152.715 107.429 153.462 108.776 154.186 109.815C154.899 110.833 155.733 111.543 156.688 111.945C157.633 112.326 158.715 112.232 159.933 111.664C161.151 111.096 161.918 110.327 162.235 109.359C162.541 108.369 162.533 107.273 162.212 106.073C161.88 104.85 161.329 103.413 160.558 101.76ZM187.602 104.005L174.583 97.722L179.315 107.869L174.747 109.999L164.128 87.2253L168.695 85.0953L173.457 95.3076L176.983 81.2309L182.497 78.6597L178.364 94.3304L193.377 101.312L187.602 104.005Z" fill="black"/>
<path d="M249.55 93.3416L246.804 94.6221L248.116 97.4362L246.675 98.1082L245.363 95.2941L242.617 96.5746L242.008 95.2695L244.754 93.989L243.442 91.1749L244.883 90.5029L246.195 93.317L248.941 92.0365L249.55 93.3416ZM249.569 88.169L248.909 86.7552L251.737 85.4366L256.358 95.3471L254.795 96.0761L250.833 87.5795L249.569 88.169ZM260.877 82.7966L256.323 84.9203L257.584 87.6256C257.656 87.2831 257.838 86.9391 258.129 86.5936C258.43 86.2439 258.793 85.9698 259.219 85.7711C259.98 85.4161 260.672 85.2919 261.296 85.3984C261.928 85.5007 262.46 85.7546 262.892 86.1601C263.333 86.5613 263.682 87.0384 263.94 87.5912C264.253 88.2619 264.4 88.9214 264.383 89.5696C264.37 90.2045 264.175 90.792 263.798 91.3319C263.43 91.8677 262.874 92.3088 262.131 92.6554C261.143 93.116 260.236 93.2411 259.41 93.0306C258.583 92.8202 257.923 92.3391 257.429 91.5874L258.938 90.8837C259.236 91.2632 259.617 91.4996 260.08 91.5927C260.538 91.6768 261.026 91.5984 261.542 91.3575C262.186 91.0575 262.575 90.6386 262.711 90.101C262.855 89.5592 262.777 88.9665 262.477 88.323C262.173 87.6705 261.778 87.2481 261.291 87.0558C260.8 86.8545 260.237 86.9018 259.602 87.1976C259.158 87.4047 258.835 87.6934 258.633 88.0636C258.435 88.4206 258.357 88.8211 258.398 89.2651L256.93 89.9498L254.261 84.2265L260.243 81.4372L260.877 82.7966ZM263.42 82.9019C263.111 82.2403 263.061 81.6349 263.268 81.0858C263.48 80.5235 263.89 80.1007 264.497 79.8175C265.104 79.5344 265.687 79.4944 266.245 79.6975C266.808 79.8874 267.244 80.3131 267.552 80.9747C267.861 81.6363 267.909 82.2483 267.697 82.8107C267.494 83.3688 267.089 83.7895 266.481 84.0727C265.874 84.3558 265.287 84.3979 264.72 84.199C264.162 83.9958 263.728 83.5635 263.42 82.9019ZM270.806 77.0909L269.794 89.0821L268.271 89.7921L269.283 77.8009L270.806 77.0909ZM264.935 80.7556C264.364 81.0218 264.262 81.5492 264.63 82.3377C265.002 83.1352 265.473 83.4009 266.044 83.1346C266.316 83.0078 266.48 82.8155 266.536 82.5575C266.597 82.2863 266.533 81.9468 266.343 81.5389C265.975 80.7504 265.506 80.4893 264.935 80.7556ZM271.545 85.882C271.237 85.2204 271.186 84.615 271.394 84.0659C271.606 83.5036 272.016 83.0808 272.623 82.7977C273.221 82.5187 273.799 82.4808 274.357 82.684C274.92 82.8738 275.356 83.2996 275.665 83.9612C275.973 84.6228 276.021 85.2348 275.809 85.7971C275.606 86.3553 275.205 86.7738 274.607 87.0528C274 87.3359 273.413 87.378 272.845 87.1791C272.287 86.976 271.854 86.5436 271.545 85.882ZM273.047 83.742C272.476 84.0083 272.374 84.5356 272.742 85.3241C273.109 86.1126 273.579 86.3737 274.15 86.1075C274.721 85.8412 274.822 85.3139 274.455 84.5254C274.087 83.7369 273.618 83.4758 273.047 83.742Z" fill="#44C079"/>
<path d="M157.146 153.821L157.81 155.412L149.451 159.31C148.721 157.521 147.634 155.08 146.191 151.986C144.95 149.323 143.887 147.155 143.003 145.481L144.979 144.56C145.56 146.03 146.538 148.238 147.912 151.183C149.041 153.605 149.907 155.563 150.509 157.058C152.633 156.067 154.845 154.988 157.146 153.821ZM161.442 153.718L159.52 154.615C158.959 153.152 158.254 151.511 157.405 149.692C156.451 147.645 155.526 145.986 154.631 144.714L156.622 143.436C157.227 144.956 158.03 146.788 159.03 148.934C159.823 150.633 160.627 152.228 161.442 153.718ZM155.698 140.234C155.866 140.595 155.896 140.965 155.788 141.343C155.676 141.714 155.408 141.998 154.983 142.196C154.622 142.365 154.286 142.384 153.975 142.253C153.668 142.112 153.438 141.878 153.287 141.552C153.121 141.198 153.098 140.834 153.217 140.46C153.335 140.086 153.607 139.8 154.032 139.601C154.379 139.44 154.706 139.429 155.013 139.571C155.324 139.701 155.552 139.923 155.698 140.234ZM173.359 148.161L170.863 149.325C170.747 149.077 169.62 148.452 167.48 147.45C165.282 146.415 164.002 145.982 163.641 146.15L163.567 146.185C164.273 147.7 165.148 149.473 166.19 151.504L164.32 152.376C163.204 149.742 162.018 147.079 160.764 144.389C159.486 141.648 158.292 139.356 157.182 137.512L159.172 136.455C159.807 138.02 161.153 141.009 163.21 145.42L163.285 145.385C163.518 145.276 163.974 144.34 164.651 142.576C165.332 140.801 165.615 139.79 165.499 139.543L167.847 138.448C167.952 138.675 167.67 139.521 167.001 140.989C166.373 142.359 165.761 143.532 165.164 144.509L165.204 144.594C166.392 144.85 168.053 145.463 170.187 146.434C172.192 147.352 173.25 147.928 173.359 148.161ZM180.679 137.158C180.818 137.455 180.995 137.872 181.211 138.409L173.974 141.939C174.527 142.94 175.332 143.621 176.388 143.982C177.441 144.336 178.569 144.232 179.773 143.671C180.849 143.169 181.797 142.567 182.616 141.866L183.134 143.448C182.569 144.048 181.631 144.653 180.322 145.264C178.481 146.122 176.841 146.275 175.402 145.722C173.97 145.165 172.917 144.165 172.244 142.72C171.524 141.177 171.344 139.645 171.704 138.123C172.067 136.592 172.992 135.48 174.479 134.786C175.846 134.149 177.071 134.069 178.156 134.546C179.247 135.02 180.088 135.89 180.679 137.158ZM178.916 138.006C177.988 136.016 176.692 135.409 175.028 136.185C173.329 136.978 172.809 138.479 173.468 140.688L178.916 138.006ZM191.453 136.22C192.417 138.287 191.578 139.937 188.937 141.169C187.769 141.713 186.624 142.105 185.503 142.343L185.104 140.629C186.189 140.553 187.27 140.265 188.346 139.763C189.89 139.043 190.457 138.244 190.048 137.366C189.85 136.942 189.519 136.686 189.057 136.6C188.598 136.504 187.9 136.485 186.961 136.543C185.771 136.615 184.863 136.573 184.238 136.416C183.319 136.181 182.679 135.678 182.319 134.906C181.943 134.099 181.925 133.267 182.267 132.409C182.605 131.545 183.397 130.822 184.643 130.241C185.861 129.673 186.886 129.32 187.718 129.182L188.102 130.865C187.195 130.917 186.239 131.177 185.234 131.646C183.874 132.28 183.378 132.99 183.744 133.776C183.929 134.172 184.232 134.424 184.652 134.529C185.068 134.628 185.8 134.645 186.847 134.579C187.978 134.509 188.858 134.547 189.486 134.693C190.434 134.932 191.089 135.441 191.453 136.22Z" fill="#383838"/>
<path d="M233.91 67.138L234.749 65.8949L232.52 64.3892L232.411 67.0771L233.91 67.138ZM246.117 75.3831L245.277 76.6261L247.305 77.9956L247.605 75.5673L246.117 75.3831ZM251.328 41.9199C250.819 41.2666 249.876 41.1499 249.223 41.6593L238.577 49.96C237.923 50.4694 237.807 51.412 238.316 52.0653C238.825 52.7186 239.768 52.8353 240.421 52.3259L249.885 44.9474L257.263 54.411C257.773 55.0643 258.715 55.181 259.369 54.6716C260.022 54.1622 260.139 53.2197 259.629 52.5664L251.328 41.9199ZM234.64 86.1404L235.408 67.1988L232.411 67.0771L231.642 86.0188L234.64 86.1404ZM233.07 68.381L245.277 76.6261L246.956 74.14L234.749 65.8949L233.07 68.381ZM247.605 75.5673L251.634 43.0265L248.657 42.6579L244.628 75.1988L247.605 75.5673Z" fill="#44C079"/>
<circle cx="73.9606" cy="159.246" r="42" transform="rotate(-25 73.9606 159.246)" fill="#0065DB"/>
<g clip-path="url(#clip0_10_670)">
<path d="M57.8724 165.634L63.9218 178.607L69.414 176.046L69.7066 175.949C75.3599 174.76 79.1384 174.042 81.07 173.788C83.6356 173.45 84.5497 173.233 86.1142 172.628C87.2852 172.176 88.3703 171.139 88.6786 170.267C88.8493 169.785 88.776 168.994 88.3819 167.898C88.299 167.668 88.2794 167.42 88.3251 167.181C88.3709 166.941 88.4803 166.717 88.6419 166.534C89.002 166.128 89.2284 165.634 89.3256 165.024C89.4179 164.465 89.2378 163.586 88.7389 162.426C88.6469 162.213 88.6108 161.98 88.6341 161.749C88.6573 161.518 88.7391 161.297 88.8716 161.107C89.6417 160.004 89.8426 159.072 89.5744 158.213C89.2773 157.263 88.5182 156.392 87.2245 155.601C86.921 155.415 86.7019 155.119 86.6137 154.774C86.5256 154.43 86.5753 154.064 86.7524 153.756C87.2409 152.906 87.3083 152.009 86.9381 150.955C86.3487 149.274 84.7709 148.565 82.3419 149.408C80.1818 150.167 78.1781 151.313 76.429 152.79C76.2296 152.955 75.987 153.06 75.73 153.092C75.4729 153.124 75.2121 153.082 74.978 152.971C74.744 152.86 74.5466 152.685 74.409 152.465C74.2714 152.246 74.1994 151.991 74.2014 151.732C74.2134 149.392 73.9794 147.575 73.5259 146.294C72.9218 144.597 71.9971 143.593 70.6668 143.031C69.6584 142.605 68.3983 142.681 68.0401 142.954C67.5668 143.311 67.3662 143.776 67.4173 145.049C67.4487 145.803 67.572 146.398 67.9385 147.752C68.2845 149.039 68.4205 149.628 68.511 150.442C68.789 152.908 68.063 155.936 66.4156 158.561C65.2604 160.398 63.8588 162.069 62.2499 163.526C62.1494 163.617 62.0357 163.693 61.9127 163.75L57.8724 165.634ZM64.9977 181.113C64.4198 181.402 63.8333 181.517 63.2492 181.414C62.5038 181.283 61.9501 180.786 61.6117 180.074L55.4274 166.798C55.0362 166.12 54.942 165.374 55.2102 164.662C55.4611 163.993 55.965 163.498 56.6098 163.215L60.5704 161.368C61.9344 160.11 63.1259 158.678 64.1137 157.107C65.4403 154.992 66.018 152.578 65.8123 150.741C65.7401 150.108 65.6267 149.609 65.3146 148.457C64.8978 146.91 64.7435 146.173 64.7035 145.15C64.6166 143.023 65.1861 141.698 66.395 140.779C67.5846 139.876 69.8673 139.74 71.7142 140.521C73.7611 141.385 75.2289 142.976 76.0846 145.388C76.4535 146.425 76.6961 147.665 76.8203 149.114C78.2627 148.167 79.8162 147.401 81.4459 146.834C85.2571 145.509 88.4046 146.925 89.5037 150.059C89.975 151.41 90.0187 152.725 89.6244 153.957C90.8942 154.934 91.7549 156.084 92.168 157.405C92.6436 158.926 92.4022 160.491 91.5073 162.036C91.9897 163.34 92.1689 164.477 92.0077 165.466C91.8876 166.26 91.6023 167.02 91.1701 167.697C91.5524 169.028 91.5932 170.19 91.2385 171.185C90.6529 172.839 88.9761 174.444 87.0987 175.17C85.3172 175.859 84.1969 176.126 81.4311 176.488C79.6073 176.728 75.9268 177.429 70.4247 178.582L64.9959 181.114L64.9977 181.113ZM60.6167 163.668C60.5406 163.506 60.4972 163.33 60.489 163.152C60.4808 162.973 60.508 162.794 60.5689 162.626C60.6299 162.458 60.7234 162.303 60.8442 162.171C60.965 162.039 61.1106 161.932 61.2728 161.857C61.4349 161.782 61.6102 161.739 61.7886 161.732C61.9671 161.725 62.1452 161.753 62.3129 161.814C62.4805 161.876 62.6344 161.97 62.7657 162.091C62.897 162.212 63.0032 162.358 63.0782 162.52L69.5679 176.437C69.6437 176.599 69.6868 176.774 69.6948 176.952C69.7029 177.131 69.6757 177.309 69.6149 177.477C69.554 177.645 69.4607 177.799 69.3403 177.931C69.2198 178.063 69.0745 178.17 68.9128 178.245C68.7508 178.321 68.5756 178.363 68.3972 178.371C68.2187 178.378 68.0405 178.351 67.8728 178.289C67.7051 178.228 67.5511 178.134 67.4196 178.013C67.2881 177.893 67.1817 177.747 67.1064 177.585L60.6167 163.668Z" fill="white"/>
</g>
</g>
<defs>
<filter id="filter0_d_10_670" x="4.21716" y="8.21716" width="309.936" height="239.318" filterUnits="userSpaceOnUse" color-interpolation-filters="sRGB">
<feFlood flood-opacity="0" result="BackgroundImageFix"/>
<feColorMatrix in="SourceAlpha" type="matrix" values="0 0 0 0 0 0 0 0 0 0 0 0 0 0 0 0 0 0 127 0" result="hardAlpha"/>
<feOffset dy="4"/>
<feGaussianBlur stdDeviation="2"/>
<feComposite in2="hardAlpha" operator="out"/>
<feColorMatrix type="matrix" values="0 0 0 0 0 0 0 0 0 0 0 0 0 0 0 0 0 0 0.15 0"/>
<feBlend mode="normal" in2="BackgroundImageFix" result="effect1_dropShadow_10_670"/>
<feBlend mode="normal" in="SourceGraphic" in2="effect1_dropShadow_10_670" result="shape"/>
</filter>
<clipPath id="clip0_10_670">
<rect width="40" height="40" fill="white" transform="translate(47.3821 149.572) rotate(-25)"/>
</clipPath>
</defs>
</svg>
