<svg width="100" height="100" viewBox="0 0 100 100" fill="none" xmlns="http://www.w3.org/2000/svg">
<g filter="url(#filter0_bi_15_325)">
<circle cx="50" cy="50" r="50" fill="#1977F3" fill-opacity="0.07"/>
</g>
<g filter="url(#filter1_bi_15_325)">
<circle cx="50" cy="50" r="40" fill="#1977F3" fill-opacity="0.09"/>
</g>
<path fill-rule="evenodd" clip-rule="evenodd" d="M80 50C80 33.4328 66.5671 20 50 20C33.4328 20 20 33.4328 20 50C20 64.9725 30.969 77.3842 45.313 79.6375V58.674H37.6937V50H45.313V43.389C45.313 35.871 49.7933 31.7155 56.6446 31.7155C59.9268 31.7155 63.3608 32.3019 63.3608 32.3019V39.685H59.5766C55.8515 39.685 54.687 41.9969 54.687 44.372V49.9998H63.0062L61.6775 58.6737H54.6868V79.6371C69.0308 77.3883 79.9996 64.9767 79.9996 49.9998L80 50Z" fill="#1977F3"/>
<path fill-rule="evenodd" clip-rule="evenodd" d="M61.6776 58.6737L63.0067 49.9998H54.6873V44.372C54.6873 42.0011 55.8474 39.685 59.5769 39.685H63.3613V32.3019C63.3613 32.3019 59.9273 31.7155 56.6449 31.7155C49.7936 31.7155 45.3133 35.8669 45.3133 43.3891V50H37.694V58.674H45.3133V79.6375C46.8404 79.8775 48.4056 80 50.0003 80C51.595 80 53.1602 79.8734 54.6873 79.6375V58.674H61.678L61.6776 58.6737Z" fill="#FEFEFE"/>
<defs>
<filter id="filter0_bi_15_325" x="-40" y="-40" width="180" height="180" filterUnits="userSpaceOnUse" color-interpolation-filters="sRGB">
<feFlood flood-opacity="0" result="BackgroundImageFix"/>
<feGaussianBlur in="BackgroundImageFix" stdDeviation="20"/>
<feComposite in2="SourceAlpha" operator="in" result="effect1_backgroundBlur_15_325"/>
<feBlend mode="normal" in="SourceGraphic" in2="effect1_backgroundBlur_15_325" result="shape"/>
<feColorMatrix in="SourceAlpha" type="matrix" values="0 0 0 0 0 0 0 0 0 0 0 0 0 0 0 0 0 0 127 0" result="hardAlpha"/>
<feOffset dy="1"/>
<feGaussianBlur stdDeviation="0.5"/>
<feComposite in2="hardAlpha" operator="arithmetic" k2="-1" k3="1"/>
<feColorMatrix type="matrix" values="0 0 0 0 1 0 0 0 0 1 0 0 0 0 1 0 0 0 0.5 0"/>
<feBlend mode="normal" in2="shape" result="effect2_innerShadow_15_325"/>
</filter>
<filter id="filter1_bi_15_325" x="-30" y="-30" width="160" height="160" filterUnits="userSpaceOnUse" color-interpolation-filters="sRGB">
<feFlood flood-opacity="0" result="BackgroundImageFix"/>
<feGaussianBlur in="BackgroundImageFix" stdDeviation="20"/>
<feComposite in2="SourceAlpha" operator="in" result="effect1_backgroundBlur_15_325"/>
<feBlend mode="normal" in="SourceGraphic" in2="effect1_backgroundBlur_15_325" result="shape"/>
<feColorMatrix in="SourceAlpha" type="matrix" values="0 0 0 0 0 0 0 0 0 0 0 0 0 0 0 0 0 0 127 0" result="hardAlpha"/>
<feOffset dy="1"/>
<feGaussianBlur stdDeviation="0.5"/>
<feComposite in2="hardAlpha" operator="arithmetic" k2="-1" k3="1"/>
<feColorMatrix type="matrix" values="0 0 0 0 1 0 0 0 0 1 0 0 0 0 1 0 0 0 0.5 0"/>
<feBlend mode="normal" in2="shape" result="effect2_innerShadow_15_325"/>
</filter>
</defs>
</svg>
