<svg width="100" height="100" viewBox="0 0 100 100" fill="none" xmlns="http://www.w3.org/2000/svg">
<g filter="url(#filter0_bi_15_672)">
<circle cx="50" cy="50" r="50" fill="#F9A153" fill-opacity="0.15"/>
</g>
<g filter="url(#filter1_bi_15_672)">
<circle cx="50" cy="50" r="40" fill="#F8A052" fill-opacity="0.1"/>
</g>
<path d="M50.0264 34.7138C49.4987 34.7138 48.9769 34.7407 48.4627 34.7934C47.9485 34.8461 47.4415 34.9241 46.943 35.0265C46.4446 35.129 45.955 35.2559 45.4753 35.4056L44.0671 35.9227L42.7264 36.57L41.4612 37.3399L40.2791 38.2241L39.1882 39.215L38.1964 40.3048L37.3112 41.4856L36.5405 42.7496L35.8927 44.0888C35.698 44.5468 35.5248 45.0165 35.3749 45.4958C35.225 45.9752 35.0981 46.4646 34.9954 46.9625C34.8928 47.4603 34.8147 47.9667 34.7619 48.4806C34.709 48.9944 34.6825 49.5157 34.6825 50.0427C34.6825 50.5697 34.7094 51.091 34.7619 51.6048C34.8141 52.1146 34.892 52.6213 34.9954 53.1232C35.0981 53.6229 35.225 54.1104 35.3749 54.5898C35.5248 55.0692 35.6978 55.5386 35.8927 55.9968L36.5405 57.336L37.3112 58.5998L38.1964 59.7808L39.1882 60.8707L40.2791 61.8617L41.4612 62.7458L42.7264 63.5154L44.0671 64.1629L45.4753 64.68L46.943 65.0592C47.4453 65.1625 47.9525 65.2404 48.4627 65.2925C48.9822 65.3454 49.5042 65.3721 50.0264 65.3717C50.554 65.3717 51.0759 65.345 51.5899 65.2925C52.1 65.2404 52.6072 65.1625 53.1095 65.0592L54.5775 64.68L55.9857 64.1629L57.3262 63.5154L58.5915 62.7458L59.7737 61.8617L60.8647 60.8707L61.8567 59.7808L62.7417 58.5998L63.5125 57.336L64.1605 55.9968L64.678 54.5898C64.828 54.1104 64.955 53.621 65.0575 53.1232L65.2909 51.6047C65.3438 51.0909 65.3705 50.5696 65.3705 50.0425C65.3705 49.5155 65.3438 48.9942 65.2909 48.4804C65.2388 47.9707 65.1609 47.464 65.0575 46.9622C64.955 46.4625 64.828 45.9752 64.678 45.4956L64.1605 44.0886L63.5125 42.7494L62.7417 41.4854L61.8567 40.3046L60.8647 39.2147L59.7737 38.2239L58.5915 37.3397L57.3262 36.5699L55.9857 35.9225L54.5775 35.4054L53.1095 35.0264L51.5899 34.7932C51.0704 34.7402 50.5485 34.7136 50.0264 34.7136V34.7138ZM50.0264 40.0048C50.3752 40.0048 50.7195 40.0221 51.0586 40.0563L52.0581 40.2076L53.0236 40.4536L53.9482 40.7894L54.8272 41.2104L55.6537 41.7111L56.4264 42.2872L57.1388 42.9334L57.7856 43.645L58.3622 44.4169L58.8635 45.2446L59.2845 46.123C59.411 46.4237 59.5232 46.7318 59.6209 47.0468C59.7185 47.3619 59.8006 47.6838 59.8669 48.0117C59.9332 48.3397 59.9822 48.6734 60.0182 49.0122L60.0697 50.0437C60.0697 50.3922 60.0524 50.7362 60.0182 51.0753C59.984 51.4144 59.9336 51.748 59.8669 52.0758C59.8002 52.4035 59.718 52.7255 59.6209 53.0407L59.2845 53.9645L58.8635 54.8429L58.3622 55.6704L57.7856 56.4425L57.1388 57.1541L56.4264 57.8004L55.6537 58.3765L54.8272 58.8772L53.9482 59.2981L53.0236 59.6339L52.0581 59.88L51.0586 60.031C50.7155 60.0654 50.371 60.0826 50.0262 60.0826C49.6813 60.0826 49.3367 60.0654 48.9936 60.031L47.9941 59.88C47.666 59.8135 47.3438 59.7312 47.0284 59.6339L46.1038 59.2981L45.2248 58.8772L44.3983 58.3765L43.6256 57.8004L42.9132 57.1541L42.2664 56.4425L41.6897 55.6704L41.1885 54.8429L40.7675 53.9645L40.4311 53.0407L40.1851 52.0758L40.0338 51.0753C39.9994 50.7325 39.9822 50.3882 39.9823 50.0437C39.9822 49.6992 39.9994 49.355 40.0338 49.0122C40.0678 48.6734 40.1184 48.3395 40.1851 48.0117C40.2511 47.6863 40.3333 47.3643 40.4313 47.047L40.7677 46.1232L41.1887 45.2448L41.69 44.4171L42.2666 43.6452L42.9134 42.9336L43.6257 42.2873L44.3985 41.7113L45.225 41.2105L46.104 40.7896C46.4065 40.6625 46.7152 40.5505 47.0287 40.4538L47.9945 40.2077C48.3226 40.1412 48.6567 40.0905 48.994 40.0565C49.3371 40.0221 49.6817 40.0049 50.0266 40.005L50.0264 40.0048Z" fill="url(#paint0_radial_15_672)"/>
<path d="M65.9925 30.3531C65.8708 30.3531 65.7492 30.3593 65.6279 30.3716C65.5067 30.3839 65.3862 30.4022 65.2667 30.4266C65.1475 30.4509 65.0292 30.4813 64.9129 30.5175C64.7962 30.5537 64.6821 30.5958 64.5696 30.6436C64.4575 30.6914 64.3479 30.7449 64.2408 30.8037C64.1337 30.8624 64.03 30.9265 63.9296 30.9957C63.8287 31.065 63.7317 31.1393 63.6387 31.2183C63.5454 31.2973 63.4562 31.3809 63.3712 31.4688C63.2867 31.5567 63.2062 31.6489 63.1304 31.745C63.0546 31.8411 62.9837 31.9409 62.9179 32.0441C62.8521 32.1472 62.7917 32.2536 62.7362 32.3628C62.6812 32.4721 62.6312 32.5841 62.5871 32.6984C62.5429 32.8126 62.5046 32.9291 62.4717 33.0472C62.4392 33.1654 62.4125 33.2851 62.3921 33.4059C62.3712 33.5267 62.3567 33.6485 62.3479 33.7708C62.3417 33.8574 62.3387 33.9442 62.3387 34.031C62.3387 34.1537 62.3446 34.2763 62.3571 34.3984C62.3692 34.5204 62.3875 34.6416 62.4117 34.7618C62.4358 34.882 62.4658 35.0009 62.5017 35.118C62.5379 35.2351 62.5796 35.3504 62.6271 35.4634C62.6746 35.5764 62.7275 35.6869 62.7862 35.7946C62.8446 35.9022 62.9083 36.0069 62.9771 36.1081C63.0458 36.2093 63.1196 36.3069 63.1979 36.4006C63.2767 36.4945 63.3596 36.5843 63.4471 36.6698C63.5346 36.7552 63.6258 36.8362 63.7217 36.9124C63.8171 36.9886 63.9162 37.06 64.0187 37.1263C64.1212 37.1926 64.2271 37.2536 64.3354 37.3093C64.4442 37.3649 64.5554 37.4151 64.6687 37.4596C64.7825 37.504 64.8979 37.5427 65.0154 37.5755C65.1329 37.6082 65.2517 37.6351 65.3717 37.6558C65.4917 37.6767 65.6129 37.6915 65.7342 37.7002C65.8204 37.7064 65.9067 37.7094 65.9929 37.7095C66.1146 37.7095 66.2367 37.7034 66.3579 37.6912C66.4787 37.6789 66.5996 37.6606 66.7187 37.6362C66.8383 37.6119 66.9562 37.5815 67.0729 37.5453C67.1892 37.5091 67.3037 37.467 67.4158 37.4192C67.5279 37.3714 67.6379 37.3181 67.7446 37.2593C67.8517 37.2005 67.9554 37.1363 68.0562 37.0671C68.1567 36.9979 68.2537 36.9236 68.3471 36.8447C68.44 36.7656 68.5292 36.682 68.6142 36.594C68.6992 36.5061 68.7796 36.4139 68.855 36.3178C68.9308 36.2217 69.0017 36.1219 69.0675 36.0187C69.1333 35.9156 69.1942 35.8091 69.2492 35.6999C69.3046 35.5905 69.3546 35.4785 69.3987 35.3642C69.4429 35.2499 69.4812 35.1335 69.5137 35.0154C69.5462 34.8972 69.5729 34.7775 69.5937 34.6567C69.6146 34.5359 69.6292 34.4141 69.6375 34.2919C69.6437 34.2052 69.6471 34.1184 69.6471 34.0316C69.6471 33.909 69.6408 33.7864 69.6287 33.6644C69.6167 33.5424 69.5983 33.4211 69.5742 33.301C69.55 33.1808 69.5196 33.0619 69.4837 32.9448C69.4475 32.8276 69.4058 32.7124 69.3583 32.5994C69.3108 32.4864 69.2579 32.3759 69.1996 32.2682C69.1412 32.1606 69.0775 32.0559 69.0087 31.9547C68.9396 31.8534 68.8658 31.7558 68.7875 31.6619C68.7087 31.5681 68.6258 31.4783 68.5387 31.3929C68.4512 31.3074 68.3596 31.2265 68.2642 31.1503C68.1687 31.0741 68.0696 31.0027 67.9671 30.9365C67.8646 30.8702 67.7587 30.8091 67.65 30.7535C67.5412 30.6979 67.43 30.6477 67.3167 30.6032C67.2033 30.5588 67.0875 30.5201 66.97 30.4873C66.8529 30.4545 66.7337 30.4276 66.6137 30.4068C66.4937 30.386 66.3729 30.3712 66.2512 30.3626C66.165 30.3564 66.0787 30.3534 65.9925 30.3534V30.3531Z" fill="url(#paint1_radial_15_672)"/>
<path d="M47.1167 20.0543C45.4479 20.0516 43.9586 20.0585 42.6207 20.0773L39.034 20.1734C37.9714 20.2196 37.0326 20.2797 36.1899 20.3576C35.7686 20.3964 35.3711 20.4399 34.9944 20.4877C34.6358 20.5329 34.2783 20.5855 33.922 20.6455C33.5827 20.7032 33.2607 20.7655 32.952 20.8331C32.6434 20.9008 32.3485 20.9738 32.064 21.0523C31.7859 21.1289 31.5099 21.2133 31.2365 21.3052C30.9686 21.3956 30.7071 21.4913 30.449 21.5935C29.9327 21.7981 29.4291 22.0276 28.9105 22.2847C28.5114 22.4827 28.1428 22.6832 27.7926 22.8954C27.4424 23.1076 27.1106 23.3318 26.7857 23.5759C26.4512 23.8285 26.1287 24.0967 25.8195 24.3797C25.4961 24.6742 25.1659 24.9981 24.8228 25.36C24.3917 25.8123 24.017 26.234 23.6845 26.6479C23.5182 26.8547 23.3625 27.0592 23.2159 27.2649C23.0708 27.4676 22.9322 27.6748 22.8001 27.8861C22.6694 28.0956 22.5456 28.309 22.4272 28.5285C22.307 28.7518 22.1933 28.9786 22.0864 29.2086C21.8677 29.6784 21.6635 30.1843 21.4598 30.749C21.3086 31.1665 21.1733 31.5896 21.054 32.0172C20.9324 32.4544 20.8241 32.9117 20.7276 33.4062C20.6312 33.9008 20.547 34.4327 20.473 35.0208C20.3932 35.6656 20.3295 36.3122 20.2819 36.9601C20.2281 37.6724 20.1835 38.4563 20.147 39.3288L20.0605 42.2297L20.0139 45.7659L20.0005 50.0402L20.0399 56.2559L20.1629 60.9652L20.2577 62.8046L20.3761 64.3292C20.414 64.74 20.4615 65.1496 20.5185 65.5584C20.5704 65.9213 20.6262 66.2388 20.6861 66.5138C20.8078 67.0725 20.9517 67.6263 21.1175 68.1738C21.2762 68.6979 21.4577 69.2146 21.6614 69.7229C21.8617 70.2209 22.0808 70.7009 22.3192 71.1629C22.5575 71.625 22.8151 72.0692 23.0919 72.4959C23.3687 72.9221 23.6647 73.3313 23.9807 73.7229C24.2964 74.1146 24.6321 74.4892 24.9866 74.8463C25.3416 75.2038 25.7161 75.5438 26.1107 75.8671C26.5099 76.1942 26.925 76.5017 27.3543 76.7879C27.7528 77.0542 28.147 77.2984 28.5441 77.5221C28.9412 77.7463 29.3418 77.9492 29.7536 78.1342C30.1653 78.3188 30.5874 78.485 31.0284 78.6346C31.4693 78.7842 31.9287 78.9171 32.4142 79.035C32.8998 79.1534 33.4137 79.2567 33.9577 79.3471C34.5017 79.4375 35.0831 79.515 35.7044 79.5817C36.3256 79.6484 36.9884 79.7034 37.7006 79.7496C38.4127 79.7959 39.1739 79.8325 39.9918 79.8621C41.2552 79.9079 43.1678 79.9346 45.3733 79.945L52.5131 79.9304L59.2742 79.8359L61.845 79.7634L63.5196 79.6775C63.8791 79.6479 64.2308 79.6134 64.5704 79.5729C64.91 79.5325 65.2446 79.4863 65.5708 79.4334C65.8966 79.3809 66.2154 79.3221 66.5283 79.2567C66.8379 79.1921 67.1458 79.12 67.4516 79.0409C67.7546 78.9638 68.0533 78.8763 68.3491 78.7834C68.6446 78.6909 68.9375 78.5904 69.2283 78.4825C69.5208 78.3742 69.8104 78.2588 70.0975 78.1367C70.3862 78.0134 70.6746 77.8821 70.9641 77.7425C71.4087 77.5284 71.7667 77.3496 72.0808 77.1754C72.3767 77.0134 72.6612 76.8321 72.9333 76.6325C73.2016 76.435 73.4683 76.21 73.7758 75.9267C74.0833 75.6434 74.4321 75.3021 74.8633 74.8704C75.2429 74.4913 75.5625 74.1617 75.8383 73.8621C76.1141 73.5625 76.3466 73.2929 76.5504 73.0329C76.7446 72.7863 76.9254 72.5296 77.0925 72.2638C77.2554 72.0042 77.4054 71.7346 77.5579 71.4359C77.7879 70.9863 77.9925 70.5696 78.1754 70.1675C78.3533 69.7804 78.5158 69.3859 78.6625 68.9859C78.8071 68.5888 78.9325 68.185 79.0379 67.7759C79.1462 67.355 79.2396 66.9104 79.3204 66.4229C79.4008 65.9354 79.4691 65.405 79.5283 64.8125C79.5875 64.2204 79.6379 63.5654 79.6821 62.83L79.7996 60.3605L79.9 57.2895L79.9721 53.868L79.9996 50.2905L79.9354 43.264L79.8496 40.1169L79.7325 37.4147L79.5862 35.308C79.5333 34.7217 79.4758 34.26 79.4154 33.9479C79.3479 33.6029 79.2729 33.2597 79.19 32.9181C79.1091 32.5859 79.0204 32.2557 78.9237 31.9277C78.8296 31.6082 78.7271 31.2911 78.6166 30.9768C78.5075 30.6664 78.3916 30.3624 78.2704 30.0651C78.1496 29.7677 78.0183 29.4773 77.8821 29.193C77.7454 28.9087 77.6025 28.6314 77.4525 28.3603C77.3021 28.0893 77.1458 27.825 76.9821 27.5672C76.8187 27.3095 76.6483 27.0582 76.4708 26.8137C76.2946 26.57 76.1104 26.3319 75.9191 26.0997C75.7287 25.8687 75.5312 25.6439 75.3266 25.4254C75.1225 25.2072 74.9112 24.9955 74.6937 24.7907C74.4758 24.5858 74.2516 24.3874 74.0204 24.1956C73.7879 24.0031 73.55 23.8179 73.3058 23.6403C73.0596 23.4608 72.8079 23.2889 72.5508 23.1247C72.2904 22.9583 72.0254 22.7996 71.7554 22.6488C71.4812 22.4955 71.2021 22.3502 70.9196 22.2129C70.45 21.9847 70.0158 21.7823 69.59 21.6028C69.1708 21.4246 68.7437 21.2663 68.31 21.1286C67.8737 20.9911 67.4196 20.8733 66.92 20.7716C66.42 20.6699 65.875 20.5852 65.2583 20.5131C64.6417 20.441 63.9529 20.3828 63.165 20.3343C62.3775 20.2859 61.4914 20.2478 60.4798 20.2171L57.0418 20.1402L52.6906 20.0889L47.1186 20.0547L47.1167 20.0543ZM50.0105 25.3406L58.0457 25.3864L61.077 25.4448C61.9116 25.4682 62.5487 25.4957 62.9221 25.5274C63.4087 25.5684 63.8717 25.6197 64.315 25.6812C64.74 25.7399 65.1633 25.8129 65.5833 25.9002C65.9871 25.9847 66.3721 26.0808 66.7408 26.1892C67.1091 26.2977 67.4612 26.4192 67.7987 26.5535C68.1367 26.6879 68.4596 26.8357 68.7704 26.9975C69.0787 27.1582 69.3783 27.3349 69.6679 27.5271C69.9562 27.7183 70.2341 27.9244 70.5041 28.1464C70.7737 28.3684 71.0354 28.6064 71.2908 28.8609C71.5608 29.1294 71.8096 29.4029 72.0387 29.6851C72.2671 29.9655 72.4787 30.2594 72.6716 30.5652C72.8671 30.8754 73.0429 31.1974 73.1987 31.5292C73.3579 31.8675 73.5008 32.225 73.6292 32.605C73.7579 32.9851 73.8721 33.3889 73.9733 33.8204C74.0796 34.2779 74.1683 34.7393 74.24 35.2034C74.3166 35.6955 74.3825 36.2203 74.4383 36.7821C74.4937 37.3439 74.54 37.9431 74.5779 38.5841C74.6083 39.0983 74.635 39.7769 74.6575 40.5782L74.7137 43.3106L74.7566 50.0035L74.7079 56.6901L74.6492 59.4146L74.5679 61.3962C74.5121 62.3242 74.4529 63.1042 74.3821 63.7829C74.3466 64.1225 74.3079 64.4367 74.2654 64.7313C74.2254 65.0096 74.1779 65.2867 74.1233 65.5625C74.0733 65.8142 74.0154 66.0642 73.9491 66.3125C73.8862 66.5488 73.815 66.7834 73.7362 67.0154C73.6566 67.2484 73.5704 67.4788 73.4771 67.7063C73.3783 67.9471 73.2742 68.185 73.1646 68.4209C73.0671 68.6313 72.9646 68.8363 72.8562 69.0354C72.7491 69.2329 72.635 69.4263 72.515 69.6159C72.3958 69.8038 72.2708 69.9863 72.14 70.1629C72.01 70.3388 71.8737 70.51 71.7312 70.6763C71.5896 70.8421 71.4417 71.0021 71.2879 71.1571C71.1342 71.3117 70.9746 71.4609 70.8092 71.605C70.6441 71.7492 70.4725 71.8879 70.295 72.0213C70.1179 72.1546 69.9342 72.2825 69.7446 72.405C69.5546 72.5279 69.3591 72.6454 69.1571 72.7579C68.955 72.87 68.7466 72.9771 68.5325 73.0792C68.3141 73.1829 68.0933 73.28 67.8691 73.3704C67.6379 73.4638 67.4041 73.5504 67.1679 73.6309C66.6871 73.7946 66.1804 73.9384 65.6466 74.0621C65.0908 74.1909 64.5296 74.2959 63.9646 74.3771C63.7471 74.4088 63.2479 74.4388 62.5329 74.4663L59.8081 74.5421L52.083 74.6425L43.9972 74.655L40.8218 74.6213L38.7599 74.5571L37.2394 74.45C36.7674 74.4104 36.3283 74.3663 35.917 74.3159C35.5056 74.2659 35.1226 74.21 34.7621 74.1467C34.4206 74.0879 34.0811 74.0171 33.7444 73.9354C33.4373 73.8609 33.1333 73.7738 32.8333 73.6746C32.544 73.5784 32.2674 73.4725 31.9983 73.3563C31.7291 73.24 31.4677 73.1125 31.2088 72.9734C30.9499 72.8342 30.6937 72.6834 30.4346 72.5184C30.2391 72.3942 30.0501 72.2684 29.8683 72.1354C29.6865 72.0021 29.5108 71.8692 29.3416 71.73C29.1725 71.5909 29.0101 71.4475 28.8534 71.3C28.6978 71.1529 28.5475 71.0004 28.4029 70.8429C28.2587 70.6854 28.1209 70.5238 27.9886 70.3563C27.8559 70.1879 27.7294 70.0146 27.6094 69.8371C27.4876 69.6567 27.3724 69.4721 27.264 69.2838C27.1544 69.0934 27.0502 68.8967 26.9512 68.6934C26.8506 68.4867 26.7566 68.2767 26.6696 68.0638C26.5812 67.8467 26.4974 67.6229 26.4186 67.3921C26.261 66.9296 26.1226 66.4375 26.0023 65.9129C25.8819 65.3884 25.7793 64.8309 25.6924 64.2367C25.6055 63.6429 25.5356 63.0129 25.4798 62.3438C25.4387 61.8509 25.406 61.0829 25.381 60.1141L25.3287 56.6686L25.3479 47.8853L25.4992 39.4924L25.6146 36.5353L25.6799 35.5579C25.7026 35.2969 25.7261 35.1035 25.7501 34.9874C25.8293 34.6054 25.909 34.25 25.9915 33.9173C26.0685 33.6034 26.1542 33.2917 26.2485 32.9826C26.3381 32.6908 26.4324 32.4174 26.5334 32.1585C26.6306 31.9077 26.7391 31.6614 26.8584 31.4202C26.9749 31.1857 27.1 30.9612 27.2359 30.7427C27.3718 30.5241 27.5185 30.3121 27.6784 30.1012C27.8383 29.8904 28.0105 29.6822 28.1979 29.4712C28.3854 29.2601 28.5878 29.0469 28.8073 28.8272C29.0631 28.5699 29.3295 28.3234 29.6057 28.0882C29.8666 27.8662 30.1386 27.6578 30.4207 27.4637C30.6981 27.2714 30.9826 27.1004 31.2788 26.9431C31.575 26.7859 31.8829 26.6438 32.2068 26.516C32.5307 26.3882 32.8709 26.2738 33.2313 26.17C33.61 26.0638 33.9928 25.9732 34.3789 25.8984C34.7848 25.8189 35.216 25.7494 35.6763 25.6889C36.1367 25.6284 36.6264 25.5761 37.1501 25.5307C37.5153 25.4992 38.1446 25.4711 38.9732 25.4475L41.9891 25.3879L50.0119 25.3389L50.0105 25.3406Z" fill="url(#paint2_radial_15_672)"/>
<defs>
<filter id="filter0_bi_15_672" x="-40" y="-40" width="180" height="180" filterUnits="userSpaceOnUse" color-interpolation-filters="sRGB">
<feFlood flood-opacity="0" result="BackgroundImageFix"/>
<feGaussianBlur in="BackgroundImageFix" stdDeviation="20"/>
<feComposite in2="SourceAlpha" operator="in" result="effect1_backgroundBlur_15_672"/>
<feBlend mode="normal" in="SourceGraphic" in2="effect1_backgroundBlur_15_672" result="shape"/>
<feColorMatrix in="SourceAlpha" type="matrix" values="0 0 0 0 0 0 0 0 0 0 0 0 0 0 0 0 0 0 127 0" result="hardAlpha"/>
<feOffset dy="1"/>
<feGaussianBlur stdDeviation="0.5"/>
<feComposite in2="hardAlpha" operator="arithmetic" k2="-1" k3="1"/>
<feColorMatrix type="matrix" values="0 0 0 0 1 0 0 0 0 1 0 0 0 0 1 0 0 0 0.5 0"/>
<feBlend mode="normal" in2="shape" result="effect2_innerShadow_15_672"/>
</filter>
<filter id="filter1_bi_15_672" x="-30" y="-30" width="160" height="160" filterUnits="userSpaceOnUse" color-interpolation-filters="sRGB">
<feFlood flood-opacity="0" result="BackgroundImageFix"/>
<feGaussianBlur in="BackgroundImageFix" stdDeviation="20"/>
<feComposite in2="SourceAlpha" operator="in" result="effect1_backgroundBlur_15_672"/>
<feBlend mode="normal" in="SourceGraphic" in2="effect1_backgroundBlur_15_672" result="shape"/>
<feColorMatrix in="SourceAlpha" type="matrix" values="0 0 0 0 0 0 0 0 0 0 0 0 0 0 0 0 0 0 127 0" result="hardAlpha"/>
<feOffset dy="1"/>
<feGaussianBlur stdDeviation="0.5"/>
<feComposite in2="hardAlpha" operator="arithmetic" k2="-1" k3="1"/>
<feColorMatrix type="matrix" values="0 0 0 0 1 0 0 0 0 1 0 0 0 0 1 0 0 0 0.5 0"/>
<feBlend mode="normal" in2="shape" result="effect2_innerShadow_15_672"/>
</filter>
<radialGradient id="paint0_radial_15_672" cx="0" cy="0" r="1" gradientUnits="userSpaceOnUse" gradientTransform="translate(29.5593 84.3108) rotate(-9.53101) scale(126.807 76.9713)">
<stop stop-color="#FED576"/>
<stop offset="0.263" stop-color="#F47133"/>
<stop offset="0.609" stop-color="#BC3081"/>
<stop offset="1" stop-color="#4C63D2"/>
</radialGradient>
<radialGradient id="paint1_radial_15_672" cx="0" cy="0" r="1" gradientUnits="userSpaceOnUse" gradientTransform="translate(29.5594 84.3108) rotate(-9.53102) scale(126.808 76.9712)">
<stop stop-color="#FED576"/>
<stop offset="0.263" stop-color="#F47133"/>
<stop offset="0.609" stop-color="#BC3081"/>
<stop offset="1" stop-color="#4C63D2"/>
</radialGradient>
<radialGradient id="paint2_radial_15_672" cx="0" cy="0" r="1" gradientUnits="userSpaceOnUse" gradientTransform="translate(29.5594 84.3109) rotate(-9.53101) scale(126.807 76.9712)">
<stop stop-color="#FED576"/>
<stop offset="0.263" stop-color="#F47133"/>
<stop offset="0.609" stop-color="#BC3081"/>
<stop offset="1" stop-color="#4C63D2"/>
</radialGradient>
</defs>
</svg>
