<svg width="210" height="214" viewBox="0 0 210 214" fill="none" xmlns="http://www.w3.org/2000/svg">
<circle cx="-3.14954" cy="207.172" r="5.65517" transform="rotate(-15 -3.14954 207.172)" fill="#C1E2AC"/>
<circle cx="-4.32605" cy="137.231" r="5.65517" transform="rotate(-15 -4.32605 137.231)" fill="#C1E2AC"/>
<circle cx="0.0648151" cy="153.618" r="5.65517" transform="rotate(-15 0.0648151 153.618)" fill="#C1E2AC"/>
<circle cx="4.45593" cy="170.006" r="5.65517" transform="rotate(-15 4.45593 170.006)" fill="#C1E2AC"/>
<circle cx="8.8468" cy="186.393" r="5.65517" transform="rotate(-15 8.8468 186.393)" fill="#C1E2AC"/>
<circle cx="13.2379" cy="202.781" r="5.65517" transform="rotate(-15 13.2379 202.781)" fill="#C1E2AC"/>
<circle cx="17.6288" cy="219.168" r="5.65517" transform="rotate(-15 17.6288 219.168)" fill="#C1E2AC"/>
<circle cx="-1.1117" cy="83.6775" r="5.65517" transform="rotate(-15 -1.1117 83.6775)" fill="#C1E2AC"/>
<circle cx="-5.5116" cy="67.2569" r="5.65517" transform="rotate(-15 -5.5116 67.2569)" fill="#C1E2AC"/>
<circle cx="3.27917" cy="100.065" r="5.65517" transform="rotate(-15 3.27917 100.065)" fill="#C1E2AC"/>
<circle cx="7.67028" cy="116.452" r="5.65517" transform="rotate(-15 7.67028 116.452)" fill="#C1E2AC"/>
<circle cx="12.0612" cy="132.84" r="5.65517" transform="rotate(-15 12.0612 132.84)" fill="#C1E2AC"/>
<circle cx="16.4523" cy="149.227" r="5.65517" transform="rotate(-15 16.4523 149.227)" fill="#C1E2AC"/>
<circle cx="20.8434" cy="165.615" r="5.65517" transform="rotate(-15 20.8434 165.615)" fill="#C1E2AC"/>
<circle cx="25.2342" cy="182.002" r="5.65517" transform="rotate(-15 25.2342 182.002)" fill="#C1E2AC"/>
<circle cx="29.6254" cy="198.39" r="5.65517" transform="rotate(-15 29.6254 198.39)" fill="#C1E2AC"/>
<circle cx="34.0162" cy="214.777" r="5.65517" transform="rotate(-15 34.0162 214.777)" fill="#C1E2AC"/>
<circle cx="15.2758" cy="79.2865" r="5.65517" transform="rotate(-15 15.2758 79.2865)" fill="#C1E2AC"/>
<circle cx="10.8759" cy="62.8658" r="5.65517" transform="rotate(-15 10.8759 62.8658)" fill="#C1E2AC"/>
<circle cx="6.47595" cy="46.4451" r="5.65517" transform="rotate(-15 6.47595 46.4451)" fill="#C1E2AC"/>
<circle cx="19.6666" cy="95.674" r="5.65517" transform="rotate(-15 19.6666 95.674)" fill="#C1E2AC"/>
<circle cx="24.0577" cy="112.061" r="5.65517" transform="rotate(-15 24.0577 112.061)" fill="#C1E2AC"/>
<circle cx="28.4486" cy="128.449" r="5.65517" transform="rotate(-15 28.4486 128.449)" fill="#C1E2AC"/>
<circle cx="32.8397" cy="144.836" r="5.65517" transform="rotate(-15 32.8397 144.836)" fill="#C1E2AC"/>
<circle cx="37.2306" cy="161.224" r="5.65517" transform="rotate(-15 37.2306 161.224)" fill="#C1E2AC"/>
<circle cx="41.6217" cy="177.611" r="5.65517" transform="rotate(-15 41.6217 177.611)" fill="#C1E2AC"/>
<circle cx="46.0128" cy="193.999" r="5.65517" transform="rotate(-15 46.0128 193.999)" fill="#C1E2AC"/>
<circle cx="50.4037" cy="210.386" r="5.65517" transform="rotate(-15 50.4037 210.386)" fill="#C1E2AC"/>
<circle cx="31.6632" cy="74.8955" r="5.65517" transform="rotate(-15 31.6632 74.8955)" fill="#C1E2AC"/>
<circle cx="27.2633" cy="58.4748" r="5.65517" transform="rotate(-15 27.2633 58.4748)" fill="#C1E2AC"/>
<circle cx="22.8634" cy="42.0541" r="5.65517" transform="rotate(-15 22.8634 42.0541)" fill="#C1E2AC"/>
<circle cx="36.0541" cy="91.283" r="5.65517" transform="rotate(-15 36.0541 91.283)" fill="#C1E2AC"/>
<circle cx="40.4452" cy="107.67" r="5.65517" transform="rotate(-15 40.4452 107.67)" fill="#C1E2AC"/>
<circle cx="44.8361" cy="124.058" r="5.65517" transform="rotate(-15 44.8361 124.058)" fill="#C1E2AC"/>
<circle cx="49.2272" cy="140.445" r="5.65517" transform="rotate(-15 49.2272 140.445)" fill="#C1E2AC"/>
<circle cx="53.618" cy="156.833" r="5.65517" transform="rotate(-15 53.618 156.833)" fill="#C1E2AC"/>
<circle cx="58.0092" cy="173.22" r="5.65517" transform="rotate(-15 58.0092 173.22)" fill="#C1E2AC"/>
<circle cx="62.4" cy="189.608" r="5.65517" transform="rotate(-15 62.4 189.608)" fill="#C1E2AC"/>
<circle cx="66.7911" cy="205.995" r="5.65517" transform="rotate(-15 66.7911 205.995)" fill="#C1E2AC"/>
<circle cx="48.0507" cy="70.5045" r="5.65517" transform="rotate(-15 48.0507 70.5045)" fill="#C1E2AC"/>
<circle cx="43.6508" cy="54.0838" r="5.65517" transform="rotate(-15 43.6508 54.0838)" fill="#C1E2AC"/>
<circle cx="39.2506" cy="37.6631" r="5.65517" transform="rotate(-15 39.2506 37.6631)" fill="#C1E2AC"/>
<circle cx="52.4415" cy="86.892" r="5.65517" transform="rotate(-15 52.4415 86.892)" fill="#C1E2AC"/>
<circle cx="56.8326" cy="103.279" r="5.65517" transform="rotate(-15 56.8326 103.279)" fill="#C1E2AC"/>
<circle cx="61.2235" cy="119.667" r="5.65517" transform="rotate(-15 61.2235 119.667)" fill="#C1E2AC"/>
<circle cx="65.6146" cy="136.054" r="5.65517" transform="rotate(-15 65.6146 136.054)" fill="#C1E2AC"/>
<circle cx="70.0055" cy="152.442" r="5.65517" transform="rotate(-15 70.0055 152.442)" fill="#C1E2AC"/>
<circle cx="74.3966" cy="168.829" r="5.65517" transform="rotate(-15 74.3966 168.829)" fill="#C1E2AC"/>
<circle cx="78.7875" cy="185.217" r="5.65517" transform="rotate(-15 78.7875 185.217)" fill="#C1E2AC"/>
<circle cx="83.1786" cy="201.604" r="5.65517" transform="rotate(-15 83.1786 201.604)" fill="#C1E2AC"/>
<circle cx="87.5695" cy="217.991" r="5.65517" transform="rotate(-15 87.5695 217.991)" fill="#C1E2AC"/>
<circle cx="64.4381" cy="66.1136" r="5.65517" transform="rotate(-15 64.4381 66.1136)" fill="#C1E2AC"/>
<circle cx="60.038" cy="49.6928" r="5.65517" transform="rotate(-15 60.038 49.6928)" fill="#C1E2AC"/>
<circle cx="55.6381" cy="33.2721" r="5.65517" transform="rotate(-15 55.6381 33.2721)" fill="#C1E2AC"/>
<circle cx="68.829" cy="82.501" r="5.65517" transform="rotate(-15 68.829 82.501)" fill="#C1E2AC"/>
<circle cx="73.2201" cy="98.8885" r="5.65517" transform="rotate(-15 73.2201 98.8885)" fill="#C1E2AC"/>
<circle cx="77.611" cy="115.276" r="5.65517" transform="rotate(-15 77.611 115.276)" fill="#C1E2AC"/>
<circle cx="82.0021" cy="131.663" r="5.65517" transform="rotate(-15 82.0021 131.663)" fill="#C1E2AC"/>
<circle cx="86.3929" cy="148.051" r="5.65517" transform="rotate(-15 86.3929 148.051)" fill="#C1E2AC"/>
<circle cx="90.784" cy="164.438" r="5.65517" transform="rotate(-15 90.784 164.438)" fill="#C1E2AC"/>
<circle cx="95.1749" cy="180.826" r="5.65517" transform="rotate(-15 95.1749 180.826)" fill="#C1E2AC"/>
<circle cx="99.566" cy="197.213" r="5.65517" transform="rotate(-15 99.566 197.213)" fill="#C1E2AC"/>
<circle cx="103.957" cy="213.6" r="5.65517" transform="rotate(-15 103.957 213.6)" fill="#C1E2AC"/>
<circle cx="80.8253" cy="61.7226" r="5.65517" transform="rotate(-15 80.8253 61.7226)" fill="#C1E2AC"/>
<circle cx="76.4254" cy="45.3018" r="5.65517" transform="rotate(-15 76.4254 45.3018)" fill="#C1E2AC"/>
<circle cx="72.0255" cy="28.8811" r="5.65517" transform="rotate(-15 72.0255 28.8811)" fill="#C1E2AC"/>
<circle cx="85.2164" cy="78.11" r="5.65517" transform="rotate(-15 85.2164 78.11)" fill="#C1E2AC"/>
<circle cx="89.6075" cy="94.4975" r="5.65517" transform="rotate(-15 89.6075 94.4975)" fill="#C1E2AC"/>
<circle cx="93.9984" cy="110.885" r="5.65517" transform="rotate(-15 93.9984 110.885)" fill="#C1E2AC"/>
<circle cx="98.3895" cy="127.272" r="5.65517" transform="rotate(-15 98.3895 127.272)" fill="#C1E2AC"/>
<circle cx="102.78" cy="143.66" r="5.65517" transform="rotate(-15 102.78 143.66)" fill="#C1E2AC"/>
<circle cx="107.172" cy="160.047" r="5.65517" transform="rotate(-15 107.172 160.047)" fill="#C1E2AC"/>
<circle cx="111.562" cy="176.435" r="5.65517" transform="rotate(-15 111.562 176.435)" fill="#C1E2AC"/>
<circle cx="115.953" cy="192.822" r="5.65517" transform="rotate(-15 115.953 192.822)" fill="#C1E2AC"/>
<circle cx="120.344" cy="209.21" r="5.65517" transform="rotate(-15 120.344 209.21)" fill="#C1E2AC"/>
<circle cx="97.2128" cy="57.3316" r="5.65517" transform="rotate(-15 97.2128 57.3316)" fill="#C1E2AC"/>
<circle cx="92.8129" cy="40.9108" r="5.65517" transform="rotate(-15 92.8129 40.9108)" fill="#C1E2AC"/>
<circle cx="88.413" cy="24.49" r="5.65517" transform="rotate(-15 88.413 24.49)" fill="#C1E2AC"/>
<circle cx="101.604" cy="73.719" r="5.65517" transform="rotate(-15 101.604 73.719)" fill="#C1E2AC"/>
<circle cx="105.995" cy="90.1064" r="5.65517" transform="rotate(-15 105.995 90.1064)" fill="#C1E2AC"/>
<circle cx="110.386" cy="106.494" r="5.65517" transform="rotate(-15 110.386 106.494)" fill="#C1E2AC"/>
<circle cx="114.777" cy="122.881" r="5.65517" transform="rotate(-15 114.777 122.881)" fill="#C1E2AC"/>
<circle cx="119.168" cy="139.269" r="5.65517" transform="rotate(-15 119.168 139.269)" fill="#C1E2AC"/>
<circle cx="123.559" cy="155.656" r="5.65517" transform="rotate(-15 123.559 155.656)" fill="#C1E2AC"/>
<circle cx="127.95" cy="172.044" r="5.65517" transform="rotate(-15 127.95 172.044)" fill="#C1E2AC"/>
<circle cx="132.341" cy="188.431" r="5.65517" transform="rotate(-15 132.341 188.431)" fill="#C1E2AC"/>
<circle cx="136.732" cy="204.819" r="5.65517" transform="rotate(-15 136.732 204.819)" fill="#C1E2AC"/>
<circle cx="113.6" cy="52.9406" r="5.65517" transform="rotate(-15 113.6 52.9406)" fill="#C1E2AC"/>
<circle cx="109.2" cy="36.5198" r="5.65517" transform="rotate(-15 109.2 36.5198)" fill="#C1E2AC"/>
<circle cx="104.8" cy="20.099" r="5.65517" transform="rotate(-15 104.8 20.099)" fill="#C1E2AC"/>
<circle cx="117.991" cy="69.328" r="5.65517" transform="rotate(-15 117.991 69.328)" fill="#C1E2AC"/>
<circle cx="122.382" cy="85.7154" r="5.65517" transform="rotate(-15 122.382 85.7154)" fill="#C1E2AC"/>
<circle cx="126.773" cy="102.103" r="5.65517" transform="rotate(-15 126.773 102.103)" fill="#C1E2AC"/>
<circle cx="131.164" cy="118.49" r="5.65517" transform="rotate(-15 131.164 118.49)" fill="#C1E2AC"/>
<circle cx="135.555" cy="134.878" r="5.65517" transform="rotate(-15 135.555 134.878)" fill="#C1E2AC"/>
<circle cx="139.946" cy="151.265" r="5.65517" transform="rotate(-15 139.946 151.265)" fill="#C1E2AC"/>
<circle cx="144.337" cy="167.653" r="5.65517" transform="rotate(-15 144.337 167.653)" fill="#C1E2AC"/>
<circle cx="148.728" cy="184.04" r="5.65517" transform="rotate(-15 148.728 184.04)" fill="#C1E2AC"/>
<circle cx="153.119" cy="200.428" r="5.65517" transform="rotate(-15 153.119 200.428)" fill="#C1E2AC"/>
<circle cx="129.988" cy="48.5496" r="5.65517" transform="rotate(-15 129.988 48.5496)" fill="#C1E2AC"/>
<circle cx="125.588" cy="32.1288" r="5.65517" transform="rotate(-15 125.588 32.1288)" fill="#C1E2AC"/>
<circle cx="121.188" cy="15.708" r="5.65517" transform="rotate(-15 121.188 15.708)" fill="#C1E2AC"/>
<circle cx="134.379" cy="64.9369" r="5.65517" transform="rotate(-15 134.379 64.9369)" fill="#C1E2AC"/>
<circle cx="138.77" cy="81.3244" r="5.65517" transform="rotate(-15 138.77 81.3244)" fill="#C1E2AC"/>
<circle cx="143.161" cy="97.7118" r="5.65517" transform="rotate(-15 143.161 97.7118)" fill="#C1E2AC"/>
<circle cx="147.552" cy="114.099" r="5.65517" transform="rotate(-15 147.552 114.099)" fill="#C1E2AC"/>
<circle cx="151.943" cy="130.487" r="5.65517" transform="rotate(-15 151.943 130.487)" fill="#C1E2AC"/>
<circle cx="156.334" cy="146.874" r="5.65517" transform="rotate(-15 156.334 146.874)" fill="#C1E2AC"/>
<circle cx="160.725" cy="163.262" r="5.65517" transform="rotate(-15 160.725 163.262)" fill="#C1E2AC"/>
<circle cx="165.116" cy="179.649" r="5.65517" transform="rotate(-15 165.116 179.649)" fill="#C1E2AC"/>
<circle cx="169.507" cy="196.036" r="5.65517" transform="rotate(-15 169.507 196.036)" fill="#C1E2AC"/>
<circle cx="146.375" cy="44.1585" r="5.65517" transform="rotate(-15 146.375 44.1585)" fill="#C1E2AC"/>
<circle cx="141.975" cy="27.7378" r="5.65517" transform="rotate(-15 141.975 27.7378)" fill="#C1E2AC"/>
<circle cx="137.575" cy="11.3172" r="5.65517" transform="rotate(-15 137.575 11.3172)" fill="#C1E2AC"/>
<circle cx="150.766" cy="60.5459" r="5.65517" transform="rotate(-15 150.766 60.5459)" fill="#C1E2AC"/>
<circle cx="155.157" cy="76.9334" r="5.65517" transform="rotate(-15 155.157 76.9334)" fill="#C1E2AC"/>
<circle cx="159.548" cy="93.3208" r="5.65517" transform="rotate(-15 159.548 93.3208)" fill="#C1E2AC"/>
<circle cx="163.939" cy="109.708" r="5.65517" transform="rotate(-15 163.939 109.708)" fill="#C1E2AC"/>
<circle cx="168.33" cy="126.096" r="5.65517" transform="rotate(-15 168.33 126.096)" fill="#C1E2AC"/>
<circle cx="172.721" cy="142.483" r="5.65517" transform="rotate(-15 172.721 142.483)" fill="#C1E2AC"/>
<circle cx="177.112" cy="158.871" r="5.65517" transform="rotate(-15 177.112 158.871)" fill="#C1E2AC"/>
<circle cx="181.503" cy="175.258" r="5.65517" transform="rotate(-15 181.503 175.258)" fill="#C1E2AC"/>
<circle cx="185.894" cy="191.646" r="5.65517" transform="rotate(-15 185.894 191.646)" fill="#C1E2AC"/>
<circle cx="162.763" cy="39.7675" r="5.65517" transform="rotate(-15 162.763 39.7675)" fill="#C1E2AC"/>
<circle cx="158.363" cy="23.3468" r="5.65517" transform="rotate(-15 158.363 23.3468)" fill="#C1E2AC"/>
<circle cx="153.963" cy="6.92606" r="5.65517" transform="rotate(-15 153.963 6.92606)" fill="#C1E2AC"/>
<circle cx="167.154" cy="56.1549" r="5.65517" transform="rotate(-15 167.154 56.1549)" fill="#C1E2AC"/>
<circle cx="171.545" cy="72.5424" r="5.65517" transform="rotate(-15 171.545 72.5424)" fill="#C1E2AC"/>
<circle cx="175.936" cy="88.9298" r="5.65517" transform="rotate(-15 175.936 88.9298)" fill="#C1E2AC"/>
<circle cx="180.327" cy="105.317" r="5.65517" transform="rotate(-15 180.327 105.317)" fill="#C1E2AC"/>
<circle cx="184.718" cy="121.705" r="5.65517" transform="rotate(-15 184.718 121.705)" fill="#C1E2AC"/>
<circle cx="189.109" cy="138.092" r="5.65517" transform="rotate(-15 189.109 138.092)" fill="#C1E2AC"/>
<circle cx="193.5" cy="154.48" r="5.65517" transform="rotate(-15 193.5 154.48)" fill="#C1E2AC"/>
<circle cx="197.891" cy="170.867" r="5.65517" transform="rotate(-15 197.891 170.867)" fill="#C1E2AC"/>
<circle cx="202.282" cy="187.254" r="5.65517" transform="rotate(-15 202.282 187.254)" fill="#C1E2AC"/>
</svg>
