<svg width="196" height="167" viewBox="0 0 196 167" fill="none" xmlns="http://www.w3.org/2000/svg">
<circle cx="4.76976" cy="33.4469" r="4.76976" fill="#C1E2AC"/>
<circle cx="4.76976" cy="19.1086" r="4.76976" fill="#C1E2AC"/>
<circle cx="4.76976" cy="4.77073" r="4.76976" fill="#C1E2AC"/>
<circle cx="4.76976" cy="47.7558" r="4.76976" fill="#C1E2AC"/>
<circle cx="4.76976" cy="62.0654" r="4.76976" fill="#C1E2AC"/>
<circle cx="4.76976" cy="76.375" r="4.76976" fill="#C1E2AC"/>
<circle cx="4.76976" cy="90.6846" r="4.76976" fill="#C1E2AC"/>
<circle cx="4.76976" cy="104.993" r="4.76976" fill="#C1E2AC"/>
<circle cx="4.76976" cy="119.302" r="4.76976" fill="#C1E2AC"/>
<circle cx="4.76976" cy="133.612" r="4.76976" fill="#C1E2AC"/>
<circle cx="4.76976" cy="147.921" r="4.76976" fill="#C1E2AC"/>
<circle cx="4.76976" cy="162.23" r="4.76976" fill="#C1E2AC"/>
<circle cx="19.0791" cy="33.4469" r="4.76976" fill="#C1E2AC"/>
<circle cx="19.0791" cy="19.1086" r="4.76976" fill="#C1E2AC"/>
<circle cx="19.0791" cy="4.77086" r="4.76976" fill="#C1E2AC"/>
<circle cx="19.0791" cy="47.7558" r="4.76976" fill="#C1E2AC"/>
<circle cx="19.0791" cy="62.0654" r="4.76976" fill="#C1E2AC"/>
<circle cx="19.0791" cy="76.375" r="4.76976" fill="#C1E2AC"/>
<circle cx="19.0791" cy="90.6846" r="4.76976" fill="#C1E2AC"/>
<circle cx="19.0791" cy="104.993" r="4.76976" fill="#C1E2AC"/>
<circle cx="19.0791" cy="119.302" r="4.76976" fill="#C1E2AC"/>
<circle cx="19.0791" cy="133.612" r="4.76976" fill="#C1E2AC"/>
<circle cx="19.0791" cy="147.921" r="4.76976" fill="#C1E2AC"/>
<circle cx="19.0791" cy="162.23" r="4.76976" fill="#C1E2AC"/>
<circle cx="33.3885" cy="33.4469" r="4.76976" fill="#C1E2AC"/>
<circle cx="33.3885" cy="19.108" r="4.76976" fill="#C1E2AC"/>
<circle cx="33.3885" cy="4.77086" r="4.76976" fill="#C1E2AC"/>
<circle cx="33.3885" cy="47.7558" r="4.76976" fill="#C1E2AC"/>
<circle cx="33.3885" cy="62.0654" r="4.76976" fill="#C1E2AC"/>
<circle cx="33.3885" cy="76.375" r="4.76976" fill="#C1E2AC"/>
<circle cx="33.3885" cy="90.6846" r="4.76976" fill="#C1E2AC"/>
<circle cx="33.3885" cy="104.993" r="4.76976" fill="#C1E2AC"/>
<circle cx="33.3885" cy="119.302" r="4.76976" fill="#C1E2AC"/>
<circle cx="33.3885" cy="133.612" r="4.76976" fill="#C1E2AC"/>
<circle cx="33.3885" cy="147.921" r="4.76976" fill="#C1E2AC"/>
<circle cx="33.3885" cy="162.23" r="4.76976" fill="#C1E2AC"/>
<circle cx="47.6979" cy="33.4469" r="4.76976" fill="#C1E2AC"/>
<circle cx="47.6979" cy="19.1086" r="4.76976" fill="#C1E2AC"/>
<circle cx="47.6979" cy="4.77086" r="4.76976" fill="#C1E2AC"/>
<circle cx="47.6979" cy="47.7558" r="4.76976" fill="#C1E2AC"/>
<circle cx="47.6979" cy="62.0654" r="4.76976" fill="#C1E2AC"/>
<circle cx="47.6979" cy="76.375" r="4.76976" fill="#C1E2AC"/>
<circle cx="47.6979" cy="90.6846" r="4.76976" fill="#C1E2AC"/>
<circle cx="47.6979" cy="104.993" r="4.76976" fill="#C1E2AC"/>
<circle cx="47.6979" cy="119.302" r="4.76976" fill="#C1E2AC"/>
<circle cx="47.6979" cy="133.612" r="4.76976" fill="#C1E2AC"/>
<circle cx="47.6979" cy="147.921" r="4.76976" fill="#C1E2AC"/>
<circle cx="47.6979" cy="162.23" r="4.76976" fill="#C1E2AC"/>
<circle cx="62.0068" cy="33.4469" r="4.76976" fill="#C1E2AC"/>
<circle cx="62.0068" cy="19.1086" r="4.76976" fill="#C1E2AC"/>
<circle cx="62.0068" cy="4.77086" r="4.76976" fill="#C1E2AC"/>
<circle cx="62.0068" cy="47.7558" r="4.76976" fill="#C1E2AC"/>
<circle cx="62.0068" cy="62.0654" r="4.76976" fill="#C1E2AC"/>
<circle cx="62.0068" cy="76.375" r="4.76976" fill="#C1E2AC"/>
<circle cx="62.0068" cy="90.6846" r="4.76976" fill="#C1E2AC"/>
<circle cx="62.0068" cy="104.993" r="4.76976" fill="#C1E2AC"/>
<circle cx="62.0068" cy="119.302" r="4.76976" fill="#C1E2AC"/>
<circle cx="62.0068" cy="133.612" r="4.76976" fill="#C1E2AC"/>
<circle cx="62.0068" cy="147.921" r="4.76976" fill="#C1E2AC"/>
<circle cx="62.0068" cy="162.23" r="4.76976" fill="#C1E2AC"/>
<circle cx="76.3161" cy="33.4469" r="4.76976" fill="#C1E2AC"/>
<circle cx="76.3161" cy="19.108" r="4.76976" fill="#C1E2AC"/>
<circle cx="76.3161" cy="4.77086" r="4.76976" fill="#C1E2AC"/>
<circle cx="76.3161" cy="47.7558" r="4.76976" fill="#C1E2AC"/>
<circle cx="76.3161" cy="62.0654" r="4.76976" fill="#C1E2AC"/>
<circle cx="76.3161" cy="76.375" r="4.76976" fill="#C1E2AC"/>
<circle cx="76.3161" cy="90.6846" r="4.76976" fill="#C1E2AC"/>
<circle cx="76.3161" cy="104.993" r="4.76976" fill="#C1E2AC"/>
<circle cx="76.3161" cy="119.302" r="4.76976" fill="#C1E2AC"/>
<circle cx="76.3161" cy="133.612" r="4.76976" fill="#C1E2AC"/>
<circle cx="76.3161" cy="147.921" r="4.76976" fill="#C1E2AC"/>
<circle cx="76.3161" cy="162.23" r="4.76976" fill="#C1E2AC"/>
<circle cx="90.6249" cy="33.4469" r="4.76976" fill="#C1E2AC"/>
<circle cx="90.6249" cy="19.108" r="4.76976" fill="#C1E2AC"/>
<circle cx="90.6249" cy="4.77086" r="4.76976" fill="#C1E2AC"/>
<circle cx="90.6249" cy="47.7558" r="4.76976" fill="#C1E2AC"/>
<circle cx="90.6249" cy="62.0654" r="4.76976" fill="#C1E2AC"/>
<circle cx="90.6249" cy="76.375" r="4.76976" fill="#C1E2AC"/>
<circle cx="90.6249" cy="90.6846" r="4.76976" fill="#C1E2AC"/>
<circle cx="90.6249" cy="104.993" r="4.76976" fill="#C1E2AC"/>
<circle cx="90.6249" cy="119.302" r="4.76976" fill="#C1E2AC"/>
<circle cx="90.6249" cy="133.612" r="4.76976" fill="#C1E2AC"/>
<circle cx="90.6249" cy="147.921" r="4.76976" fill="#C1E2AC"/>
<circle cx="90.6249" cy="162.23" r="4.76976" fill="#C1E2AC"/>
<circle cx="104.934" cy="33.4469" r="4.76976" fill="#C1E2AC"/>
<circle cx="104.934" cy="19.1086" r="4.76976" fill="#C1E2AC"/>
<circle cx="104.934" cy="4.77086" r="4.76976" fill="#C1E2AC"/>
<circle cx="104.934" cy="47.7558" r="4.76976" fill="#C1E2AC"/>
<circle cx="104.934" cy="62.0654" r="4.76976" fill="#C1E2AC"/>
<circle cx="104.934" cy="76.375" r="4.76976" fill="#C1E2AC"/>
<circle cx="104.934" cy="90.6846" r="4.76976" fill="#C1E2AC"/>
<circle cx="104.934" cy="104.993" r="4.76976" fill="#C1E2AC"/>
<circle cx="104.934" cy="119.302" r="4.76976" fill="#C1E2AC"/>
<circle cx="104.934" cy="133.612" r="4.76976" fill="#C1E2AC"/>
<circle cx="104.934" cy="147.921" r="4.76976" fill="#C1E2AC"/>
<circle cx="104.934" cy="162.23" r="4.76976" fill="#C1E2AC"/>
<circle cx="119.244" cy="33.4469" r="4.76976" fill="#C1E2AC"/>
<circle cx="119.244" cy="19.108" r="4.76976" fill="#C1E2AC"/>
<circle cx="119.244" cy="4.77086" r="4.76976" fill="#C1E2AC"/>
<circle cx="119.244" cy="47.7558" r="4.76976" fill="#C1E2AC"/>
<circle cx="119.244" cy="62.0654" r="4.76976" fill="#C1E2AC"/>
<circle cx="119.244" cy="76.375" r="4.76976" fill="#C1E2AC"/>
<circle cx="119.244" cy="90.6846" r="4.76976" fill="#C1E2AC"/>
<circle cx="119.244" cy="104.993" r="4.76976" fill="#C1E2AC"/>
<circle cx="119.244" cy="119.302" r="4.76976" fill="#C1E2AC"/>
<circle cx="119.244" cy="133.612" r="4.76976" fill="#C1E2AC"/>
<circle cx="119.244" cy="147.921" r="4.76976" fill="#C1E2AC"/>
<circle cx="119.244" cy="162.23" r="4.76976" fill="#C1E2AC"/>
<circle cx="133.553" cy="33.4469" r="4.76976" fill="#C1E2AC"/>
<circle cx="133.553" cy="19.108" r="4.76976" fill="#C1E2AC"/>
<circle cx="133.553" cy="4.76976" r="4.76976" fill="#C1E2AC"/>
<circle cx="133.553" cy="47.7558" r="4.76976" fill="#C1E2AC"/>
<circle cx="133.553" cy="62.0654" r="4.76976" fill="#C1E2AC"/>
<circle cx="133.553" cy="76.375" r="4.76976" fill="#C1E2AC"/>
<circle cx="133.553" cy="90.6846" r="4.76976" fill="#C1E2AC"/>
<circle cx="133.553" cy="104.993" r="4.76976" fill="#C1E2AC"/>
<circle cx="133.553" cy="119.302" r="4.76976" fill="#C1E2AC"/>
<circle cx="133.553" cy="133.612" r="4.76976" fill="#C1E2AC"/>
<circle cx="133.553" cy="147.921" r="4.76976" fill="#C1E2AC"/>
<circle cx="133.553" cy="162.23" r="4.76976" fill="#C1E2AC"/>
<circle cx="147.862" cy="33.4469" r="4.76976" fill="#C1E2AC"/>
<circle cx="147.862" cy="19.108" r="4.76976" fill="#C1E2AC"/>
<circle cx="147.862" cy="4.77086" r="4.76976" fill="#C1E2AC"/>
<circle cx="147.862" cy="47.7558" r="4.76976" fill="#C1E2AC"/>
<circle cx="147.863" cy="62.0654" r="4.76976" fill="#C1E2AC"/>
<circle cx="147.862" cy="76.375" r="4.76976" fill="#C1E2AC"/>
<circle cx="147.862" cy="90.6846" r="4.76976" fill="#C1E2AC"/>
<circle cx="147.863" cy="104.993" r="4.76976" fill="#C1E2AC"/>
<circle cx="147.862" cy="119.302" r="4.76976" fill="#C1E2AC"/>
<circle cx="147.862" cy="133.612" r="4.76976" fill="#C1E2AC"/>
<circle cx="147.862" cy="147.921" r="4.76976" fill="#C1E2AC"/>
<circle cx="147.862" cy="162.23" r="4.76976" fill="#C1E2AC"/>
<circle cx="162.172" cy="33.4469" r="4.76976" fill="#C1E2AC"/>
<circle cx="162.172" cy="19.108" r="4.76976" fill="#C1E2AC"/>
<circle cx="162.172" cy="4.77086" r="4.76976" fill="#C1E2AC"/>
<circle cx="162.172" cy="47.7558" r="4.76976" fill="#C1E2AC"/>
<circle cx="162.172" cy="62.0654" r="4.76976" fill="#C1E2AC"/>
<circle cx="162.172" cy="76.375" r="4.76976" fill="#C1E2AC"/>
<circle cx="162.172" cy="90.6846" r="4.76976" fill="#C1E2AC"/>
<circle cx="162.172" cy="104.993" r="4.76976" fill="#C1E2AC"/>
<circle cx="162.172" cy="119.302" r="4.76976" fill="#C1E2AC"/>
<circle cx="162.172" cy="133.612" r="4.76976" fill="#C1E2AC"/>
<circle cx="162.172" cy="147.921" r="4.76976" fill="#C1E2AC"/>
<circle cx="162.172" cy="162.23" r="4.76976" fill="#C1E2AC"/>
<circle cx="176.48" cy="33.4469" r="4.76976" fill="#C1E2AC"/>
<circle cx="176.481" cy="19.1086" r="4.76976" fill="#C1E2AC"/>
<circle cx="176.481" cy="4.76976" r="4.76976" fill="#C1E2AC"/>
<circle cx="176.481" cy="47.7558" r="4.76976" fill="#C1E2AC"/>
<circle cx="176.481" cy="62.0654" r="4.76976" fill="#C1E2AC"/>
<circle cx="176.481" cy="76.375" r="4.76976" fill="#C1E2AC"/>
<circle cx="176.481" cy="90.6846" r="4.76976" fill="#C1E2AC"/>
<circle cx="176.481" cy="104.993" r="4.76976" fill="#C1E2AC"/>
<circle cx="176.481" cy="119.302" r="4.76976" fill="#C1E2AC"/>
<circle cx="176.481" cy="133.612" r="4.76976" fill="#C1E2AC"/>
<circle cx="176.481" cy="147.921" r="4.76976" fill="#C1E2AC"/>
<circle cx="176.481" cy="162.23" r="4.76976" fill="#C1E2AC"/>
<circle cx="190.79" cy="33.4469" r="4.76976" fill="#C1E2AC"/>
<circle cx="190.79" cy="19.1086" r="4.76976" fill="#C1E2AC"/>
<circle cx="190.79" cy="4.77086" r="4.76976" fill="#C1E2AC"/>
<circle cx="190.79" cy="47.7558" r="4.76976" fill="#C1E2AC"/>
<circle cx="190.791" cy="62.0654" r="4.76976" fill="#C1E2AC"/>
<circle cx="190.79" cy="76.375" r="4.76976" fill="#C1E2AC"/>
<circle cx="190.79" cy="90.6846" r="4.76976" fill="#C1E2AC"/>
<circle cx="190.79" cy="104.993" r="4.76976" fill="#C1E2AC"/>
<circle cx="190.79" cy="119.302" r="4.76976" fill="#C1E2AC"/>
<circle cx="190.79" cy="133.612" r="4.76976" fill="#C1E2AC"/>
<circle cx="190.79" cy="147.921" r="4.76976" fill="#C1E2AC"/>
<circle cx="190.79" cy="162.23" r="4.76976" fill="#C1E2AC"/>
</svg>
