<svg width="232" height="164" viewBox="0 0 232 164" fill="none" xmlns="http://www.w3.org/2000/svg">
<circle cx="5.65517" cy="5.65517" r="5.65517" fill="#C1E2AC"/>
<circle cx="5.65517" cy="22.6207" r="5.65517" fill="#C1E2AC"/>
<circle cx="5.65517" cy="39.5862" r="5.65517" fill="#C1E2AC"/>
<circle cx="5.65517" cy="56.5518" r="5.65517" fill="#C1E2AC"/>
<circle cx="5.65517" cy="73.5172" r="5.65517" fill="#C1E2AC"/>
<circle cx="5.65517" cy="90.4828" r="5.65517" fill="#C1E2AC"/>
<circle cx="5.65517" cy="107.448" r="5.65517" fill="#C1E2AC"/>
<circle cx="5.65517" cy="124.414" r="5.65517" fill="#C1E2AC"/>
<circle cx="5.65517" cy="141.379" r="5.65517" fill="#C1E2AC"/>
<circle cx="5.65517" cy="158.345" r="5.65517" fill="#C1E2AC"/>
<circle cx="22.6207" cy="5.65517" r="5.65517" fill="#C1E2AC"/>
<circle cx="22.6207" cy="22.6207" r="5.65517" fill="#C1E2AC"/>
<circle cx="22.6207" cy="39.5862" r="5.65517" fill="#C1E2AC"/>
<circle cx="22.6207" cy="56.5518" r="5.65517" fill="#C1E2AC"/>
<circle cx="22.6207" cy="73.5172" r="5.65517" fill="#C1E2AC"/>
<circle cx="22.6207" cy="90.4828" r="5.65517" fill="#C1E2AC"/>
<circle cx="22.6207" cy="107.448" r="5.65517" fill="#C1E2AC"/>
<circle cx="22.6207" cy="124.414" r="5.65517" fill="#C1E2AC"/>
<circle cx="22.6207" cy="141.379" r="5.65517" fill="#C1E2AC"/>
<circle cx="22.6207" cy="158.345" r="5.65517" fill="#C1E2AC"/>
<circle cx="39.5862" cy="5.65517" r="5.65517" fill="#C1E2AC"/>
<circle cx="39.5862" cy="22.6207" r="5.65517" fill="#C1E2AC"/>
<circle cx="39.5862" cy="39.5862" r="5.65517" fill="#C1E2AC"/>
<circle cx="39.5862" cy="56.5518" r="5.65517" fill="#C1E2AC"/>
<circle cx="39.5862" cy="73.5172" r="5.65517" fill="#C1E2AC"/>
<circle cx="39.5862" cy="90.4828" r="5.65517" fill="#C1E2AC"/>
<circle cx="39.5862" cy="107.448" r="5.65517" fill="#C1E2AC"/>
<circle cx="39.5862" cy="124.414" r="5.65517" fill="#C1E2AC"/>
<circle cx="39.5862" cy="141.379" r="5.65517" fill="#C1E2AC"/>
<circle cx="39.5862" cy="158.345" r="5.65517" fill="#C1E2AC"/>
<circle cx="56.5518" cy="5.65517" r="5.65517" fill="#C1E2AC"/>
<circle cx="56.5518" cy="22.6207" r="5.65517" fill="#C1E2AC"/>
<circle cx="56.5518" cy="39.5862" r="5.65517" fill="#C1E2AC"/>
<circle cx="56.5518" cy="56.5518" r="5.65517" fill="#C1E2AC"/>
<circle cx="56.5518" cy="73.5172" r="5.65517" fill="#C1E2AC"/>
<circle cx="56.5518" cy="90.4828" r="5.65517" fill="#C1E2AC"/>
<circle cx="56.5518" cy="107.448" r="5.65517" fill="#C1E2AC"/>
<circle cx="56.5518" cy="124.414" r="5.65517" fill="#C1E2AC"/>
<circle cx="56.5518" cy="141.379" r="5.65517" fill="#C1E2AC"/>
<circle cx="56.5518" cy="158.345" r="5.65517" fill="#C1E2AC"/>
<circle cx="73.5172" cy="5.65517" r="5.65517" fill="#C1E2AC"/>
<circle cx="73.5172" cy="22.6207" r="5.65517" fill="#C1E2AC"/>
<circle cx="73.5172" cy="39.5862" r="5.65517" fill="#C1E2AC"/>
<circle cx="73.5172" cy="56.5518" r="5.65517" fill="#C1E2AC"/>
<circle cx="73.5172" cy="73.5172" r="5.65517" fill="#C1E2AC"/>
<circle cx="73.5172" cy="90.4828" r="5.65517" fill="#C1E2AC"/>
<circle cx="73.5172" cy="107.448" r="5.65517" fill="#C1E2AC"/>
<circle cx="73.5172" cy="124.414" r="5.65517" fill="#C1E2AC"/>
<circle cx="73.5172" cy="141.379" r="5.65517" fill="#C1E2AC"/>
<circle cx="73.5172" cy="158.345" r="5.65517" fill="#C1E2AC"/>
<circle cx="90.4828" cy="5.65517" r="5.65517" fill="#C1E2AC"/>
<circle cx="90.4828" cy="22.6207" r="5.65517" fill="#C1E2AC"/>
<circle cx="90.4828" cy="39.5862" r="5.65517" fill="#C1E2AC"/>
<circle cx="90.4828" cy="56.5518" r="5.65517" fill="#C1E2AC"/>
<circle cx="90.4828" cy="73.5172" r="5.65517" fill="#C1E2AC"/>
<circle cx="90.4828" cy="90.4828" r="5.65517" fill="#C1E2AC"/>
<circle cx="90.4828" cy="107.448" r="5.65517" fill="#C1E2AC"/>
<circle cx="90.4828" cy="124.414" r="5.65517" fill="#C1E2AC"/>
<circle cx="90.4828" cy="141.379" r="5.65517" fill="#C1E2AC"/>
<circle cx="90.4828" cy="158.345" r="5.65517" fill="#C1E2AC"/>
<circle cx="107.448" cy="5.65517" r="5.65517" fill="#C1E2AC"/>
<circle cx="107.448" cy="22.6207" r="5.65517" fill="#C1E2AC"/>
<circle cx="107.448" cy="39.5862" r="5.65517" fill="#C1E2AC"/>
<circle cx="107.448" cy="56.5518" r="5.65517" fill="#C1E2AC"/>
<circle cx="107.448" cy="73.5172" r="5.65517" fill="#C1E2AC"/>
<circle cx="107.448" cy="90.4828" r="5.65517" fill="#C1E2AC"/>
<circle cx="107.448" cy="107.448" r="5.65517" fill="#C1E2AC"/>
<circle cx="107.448" cy="124.414" r="5.65517" fill="#C1E2AC"/>
<circle cx="107.448" cy="141.379" r="5.65517" fill="#C1E2AC"/>
<circle cx="107.448" cy="158.345" r="5.65517" fill="#C1E2AC"/>
<circle cx="124.414" cy="5.65517" r="5.65517" fill="#C1E2AC"/>
<circle cx="124.414" cy="22.6207" r="5.65517" fill="#C1E2AC"/>
<circle cx="124.414" cy="39.5862" r="5.65517" fill="#C1E2AC"/>
<circle cx="124.414" cy="56.5518" r="5.65517" fill="#C1E2AC"/>
<circle cx="124.414" cy="73.5172" r="5.65517" fill="#C1E2AC"/>
<circle cx="124.414" cy="90.4828" r="5.65517" fill="#C1E2AC"/>
<circle cx="124.414" cy="107.448" r="5.65517" fill="#C1E2AC"/>
<circle cx="124.414" cy="124.414" r="5.65517" fill="#C1E2AC"/>
<circle cx="124.414" cy="141.379" r="5.65517" fill="#C1E2AC"/>
<circle cx="124.414" cy="158.345" r="5.65517" fill="#C1E2AC"/>
<circle cx="141.379" cy="5.65517" r="5.65517" fill="#C1E2AC"/>
<circle cx="141.379" cy="22.6207" r="5.65517" fill="#C1E2AC"/>
<circle cx="141.379" cy="39.5862" r="5.65517" fill="#C1E2AC"/>
<circle cx="141.379" cy="56.5518" r="5.65517" fill="#C1E2AC"/>
<circle cx="141.379" cy="73.5172" r="5.65517" fill="#C1E2AC"/>
<circle cx="141.379" cy="90.4828" r="5.65517" fill="#C1E2AC"/>
<circle cx="141.379" cy="107.448" r="5.65517" fill="#C1E2AC"/>
<circle cx="141.379" cy="124.414" r="5.65517" fill="#C1E2AC"/>
<circle cx="141.379" cy="141.379" r="5.65517" fill="#C1E2AC"/>
<circle cx="141.379" cy="158.345" r="5.65517" fill="#C1E2AC"/>
<circle cx="158.345" cy="5.65517" r="5.65517" fill="#C1E2AC"/>
<circle cx="158.345" cy="22.6207" r="5.65517" fill="#C1E2AC"/>
<circle cx="158.345" cy="39.5862" r="5.65517" fill="#C1E2AC"/>
<circle cx="158.345" cy="56.5518" r="5.65517" fill="#C1E2AC"/>
<circle cx="158.345" cy="73.5172" r="5.65517" fill="#C1E2AC"/>
<circle cx="158.345" cy="90.4828" r="5.65517" fill="#C1E2AC"/>
<circle cx="158.345" cy="107.448" r="5.65517" fill="#C1E2AC"/>
<circle cx="158.345" cy="124.414" r="5.65517" fill="#C1E2AC"/>
<circle cx="158.345" cy="141.379" r="5.65517" fill="#C1E2AC"/>
<circle cx="158.345" cy="158.345" r="5.65517" fill="#C1E2AC"/>
<circle cx="175.31" cy="5.65517" r="5.65517" fill="#C1E2AC"/>
<circle cx="175.31" cy="22.6207" r="5.65517" fill="#C1E2AC"/>
<circle cx="175.31" cy="39.5862" r="5.65517" fill="#C1E2AC"/>
<circle cx="175.31" cy="56.5518" r="5.65517" fill="#C1E2AC"/>
<circle cx="175.31" cy="73.5172" r="5.65517" fill="#C1E2AC"/>
<circle cx="175.31" cy="90.4828" r="5.65517" fill="#C1E2AC"/>
<circle cx="175.31" cy="107.448" r="5.65517" fill="#C1E2AC"/>
<circle cx="175.31" cy="124.414" r="5.65517" fill="#C1E2AC"/>
<circle cx="175.31" cy="141.379" r="5.65517" fill="#C1E2AC"/>
<circle cx="175.31" cy="158.345" r="5.65517" fill="#C1E2AC"/>
<circle cx="192.276" cy="5.65517" r="5.65517" fill="#C1E2AC"/>
<circle cx="192.276" cy="22.6207" r="5.65517" fill="#C1E2AC"/>
<circle cx="192.276" cy="39.5862" r="5.65517" fill="#C1E2AC"/>
<circle cx="192.276" cy="56.5518" r="5.65517" fill="#C1E2AC"/>
<circle cx="192.276" cy="73.5172" r="5.65517" fill="#C1E2AC"/>
<circle cx="192.276" cy="90.4828" r="5.65517" fill="#C1E2AC"/>
<circle cx="192.276" cy="107.448" r="5.65517" fill="#C1E2AC"/>
<circle cx="192.276" cy="124.414" r="5.65517" fill="#C1E2AC"/>
<circle cx="192.276" cy="141.379" r="5.65517" fill="#C1E2AC"/>
<circle cx="192.276" cy="158.345" r="5.65517" fill="#C1E2AC"/>
<circle cx="209.241" cy="5.65517" r="5.65517" fill="#C1E2AC"/>
<circle cx="209.241" cy="22.6207" r="5.65517" fill="#C1E2AC"/>
<circle cx="209.241" cy="39.5862" r="5.65517" fill="#C1E2AC"/>
<circle cx="209.241" cy="56.5518" r="5.65517" fill="#C1E2AC"/>
<circle cx="209.241" cy="73.5172" r="5.65517" fill="#C1E2AC"/>
<circle cx="209.241" cy="90.4828" r="5.65517" fill="#C1E2AC"/>
<circle cx="209.241" cy="107.448" r="5.65517" fill="#C1E2AC"/>
<circle cx="209.241" cy="124.414" r="5.65517" fill="#C1E2AC"/>
<circle cx="209.241" cy="141.379" r="5.65517" fill="#C1E2AC"/>
<circle cx="209.241" cy="158.345" r="5.65517" fill="#C1E2AC"/>
<circle cx="226.207" cy="5.65517" r="5.65517" fill="#C1E2AC"/>
<circle cx="226.207" cy="22.6207" r="5.65517" fill="#C1E2AC"/>
<circle cx="226.207" cy="39.5862" r="5.65517" fill="#C1E2AC"/>
<circle cx="226.207" cy="56.5518" r="5.65517" fill="#C1E2AC"/>
<circle cx="226.207" cy="73.5172" r="5.65517" fill="#C1E2AC"/>
<circle cx="226.207" cy="90.4828" r="5.65517" fill="#C1E2AC"/>
<circle cx="226.207" cy="107.448" r="5.65517" fill="#C1E2AC"/>
<circle cx="226.207" cy="124.414" r="5.65517" fill="#C1E2AC"/>
<circle cx="226.207" cy="141.379" r="5.65517" fill="#C1E2AC"/>
<circle cx="226.207" cy="158.345" r="5.65517" fill="#C1E2AC"/>
</svg>
