<svg width="76" height="76" viewBox="0 0 76 76" fill="none" xmlns="http://www.w3.org/2000/svg">
<g filter="url(#filter0_bi_15_752)">
<circle cx="38" cy="38" r="38" fill="#0A66C2" fill-opacity="0.08"/>
</g>
<g filter="url(#filter1_bi_15_752)">
<circle cx="38" cy="38" r="30.4" fill="#1D9BF0" fill-opacity="0.07"/>
</g>
<path d="M58.5377 57.8563C58.6357 57.8576 58.7325 57.8351 58.8227 57.7904C58.9128 57.7458 58.994 57.6799 59.0615 57.5969C59.1289 57.5137 59.1813 57.4155 59.215 57.3075C59.2487 57.1998 59.263 57.0852 59.2573 56.9706C59.2573 56.3423 58.9346 56.0421 58.272 56.0421H57.2013V59.3313H57.6041V57.8975H58.0987L58.1101 57.9152L58.878 59.3313H59.3086L58.4824 57.8655L58.5377 57.8563ZM58.072 57.527H57.6052V56.4151H58.1969C58.5027 56.4151 58.8513 56.4737 58.8513 56.9433C58.8513 57.4836 58.4986 57.527 58.0696 57.527" fill="#0A66C2"/>
<path d="M48.0338 53.7345H42.3238V43.2402C42.3238 40.7377 42.2858 37.5163 39.3542 37.5163C36.3803 37.5163 35.9253 40.2428 35.9253 43.058V53.7338H30.2154V32.1532H35.6969V35.1024H35.7736C36.3222 34.0017 37.1149 33.0961 38.0673 32.4822C39.0197 31.8684 40.0961 31.5691 41.1819 31.6164C46.9691 31.6164 48.0362 36.0839 48.0362 41.8957L48.0338 53.7345ZM23.7728 29.2033C23.1175 29.2035 22.4768 28.9755 21.9318 28.5483C21.3868 28.1211 20.9621 27.5139 20.7112 26.8034C20.4603 26.0928 20.3945 25.3109 20.5223 24.5566C20.65 23.8022 20.9655 23.1092 21.4288 22.5653C21.8921 22.0213 22.4825 21.6509 23.1252 21.5007C23.768 21.3505 24.4342 21.4273 25.0397 21.7215C25.6452 22.0157 26.1628 22.5141 26.5269 23.1535C26.8911 23.7929 27.0856 24.5447 27.0857 25.3139C27.0858 25.8245 27.0002 26.3302 26.8337 26.8021C26.6672 27.2739 26.4233 27.7027 26.1157 28.0638C25.808 28.425 25.4428 28.7115 25.0408 28.907C24.6388 29.1026 24.208 29.2032 23.7728 29.2033ZM26.6277 53.7345H20.9119V32.1532H26.6277V53.7345ZM50.8804 15.2028H18.0427C17.2974 15.1929 16.5792 15.5307 16.046 16.142C15.5128 16.7532 15.2082 17.5879 15.1991 18.4626V57.1611C15.2079 58.0364 15.5123 58.8714 16.0455 59.4836C16.5787 60.0954 17.297 60.4339 18.0427 60.4244H50.8804C51.6276 60.4355 52.348 60.0979 52.8833 59.4861C53.4184 58.8743 53.7249 58.038 53.7354 57.1611V18.4598C53.7246 17.5834 53.4179 16.7477 52.8828 16.1365C52.3475 15.5253 51.6273 15.1884 50.8804 15.2" fill="#0A66C2"/>
<path d="M58.1209 54.5769C57.4264 54.5848 56.7623 54.9151 56.2748 55.4959C55.7869 56.0766 55.5152 56.8604 55.5185 57.6758C55.522 58.4909 55.8002 59.2715 56.2926 59.8466C56.785 60.4219 57.4515 60.7446 58.1463 60.7446C58.8411 60.7446 59.5072 60.4219 59.9997 59.8466C60.4921 59.2715 60.7706 58.4909 60.7738 57.6758C60.7773 56.8604 60.5053 56.0766 60.0178 55.4959C59.5299 54.9151 58.8661 54.5848 58.1714 54.5769H58.1209ZM58.1209 60.3915C57.6652 60.4007 57.2175 60.2506 56.8347 59.9609C56.4515 59.6714 56.1501 59.2547 55.9688 58.7642C55.7875 58.2734 55.734 57.7306 55.8155 57.2046C55.897 56.6783 56.1096 56.1922 56.4264 55.8078C56.7432 55.4234 57.1501 55.1577 57.5956 55.0446C58.041 54.9316 58.5049 54.9762 58.9288 55.1726C59.3526 55.3689 59.7174 55.7087 59.9767 56.1482C60.2363 56.5881 60.3788 57.108 60.3863 57.6429C60.3863 57.6581 60.3863 57.673 60.3863 57.6882C60.3993 58.3896 60.174 59.0685 59.7603 59.5752C59.347 60.0818 58.7787 60.3751 58.1811 60.3903H58.1214" fill="#0A66C2"/>
<defs>
<filter id="filter0_bi_15_752" x="-40" y="-40" width="156" height="156" filterUnits="userSpaceOnUse" color-interpolation-filters="sRGB">
<feFlood flood-opacity="0" result="BackgroundImageFix"/>
<feGaussianBlur in="BackgroundImageFix" stdDeviation="20"/>
<feComposite in2="SourceAlpha" operator="in" result="effect1_backgroundBlur_15_752"/>
<feBlend mode="normal" in="SourceGraphic" in2="effect1_backgroundBlur_15_752" result="shape"/>
<feColorMatrix in="SourceAlpha" type="matrix" values="0 0 0 0 0 0 0 0 0 0 0 0 0 0 0 0 0 0 127 0" result="hardAlpha"/>
<feOffset dy="1"/>
<feGaussianBlur stdDeviation="0.5"/>
<feComposite in2="hardAlpha" operator="arithmetic" k2="-1" k3="1"/>
<feColorMatrix type="matrix" values="0 0 0 0 1 0 0 0 0 1 0 0 0 0 1 0 0 0 0.5 0"/>
<feBlend mode="normal" in2="shape" result="effect2_innerShadow_15_752"/>
</filter>
<filter id="filter1_bi_15_752" x="-32.4" y="-32.4" width="140.8" height="140.8" filterUnits="userSpaceOnUse" color-interpolation-filters="sRGB">
<feFlood flood-opacity="0" result="BackgroundImageFix"/>
<feGaussianBlur in="BackgroundImageFix" stdDeviation="20"/>
<feComposite in2="SourceAlpha" operator="in" result="effect1_backgroundBlur_15_752"/>
<feBlend mode="normal" in="SourceGraphic" in2="effect1_backgroundBlur_15_752" result="shape"/>
<feColorMatrix in="SourceAlpha" type="matrix" values="0 0 0 0 0 0 0 0 0 0 0 0 0 0 0 0 0 0 127 0" result="hardAlpha"/>
<feOffset dy="1"/>
<feGaussianBlur stdDeviation="0.5"/>
<feComposite in2="hardAlpha" operator="arithmetic" k2="-1" k3="1"/>
<feColorMatrix type="matrix" values="0 0 0 0 1 0 0 0 0 1 0 0 0 0 1 0 0 0 0.5 0"/>
<feBlend mode="normal" in2="shape" result="effect2_innerShadow_15_752"/>
</filter>
</defs>
</svg>
