<svg width="145" height="133" viewBox="0 0 145 133" fill="none" xmlns="http://www.w3.org/2000/svg">
<path d="M24.0262 32.5338C56.5639 -23.8232 114.28 56.0074 133.632 67.1802C152.984 78.353 106.537 61.9042 95.3639 81.2561C84.1911 100.608 59.446 107.238 40.0942 96.0656C20.7423 84.8928 12.8534 51.8856 24.0262 32.5338Z" fill="#FF842B"/>
<g filter="url(#filter0_d_31_1165)">
<path d="M75.2534 44.7176C75.2769 45.1317 75.2769 45.5457 75.2769 45.9636C75.2769 58.6965 67.346 73.3814 52.844 73.3814V73.3738C48.5601 73.3814 44.3651 71.8816 40.7588 69.0538C41.3817 69.1455 42.0077 69.1912 42.6353 69.1931C46.1855 69.1968 49.6342 67.7409 52.4271 65.0602C49.0534 64.9818 46.0949 62.2935 45.0614 58.3683C46.2433 58.6469 47.461 58.5897 48.621 58.2023C44.9428 57.2941 42.2966 53.3442 42.2966 48.7571C42.2966 48.7151 42.2966 48.6751 42.2966 48.635C43.3925 49.3811 44.6196 49.7951 45.8748 49.8409C42.4105 47.0112 41.3427 41.3784 43.4347 36.9744C47.4376 42.9946 53.3436 46.6543 59.6836 47.0417C59.0481 43.6949 59.9162 40.1877 61.9645 37.835C65.14 34.1867 70.1342 34.3737 73.1191 38.2529C74.8849 37.8274 76.5773 37.0355 78.126 35.9135C77.5374 38.1441 76.3055 40.0389 74.66 41.2429C76.2228 41.0177 77.7498 40.5064 79.1876 39.7259C78.1291 41.6646 76.7958 43.3533 75.2534 44.7176Z" fill="white"/>
</g>
<defs>
<filter id="filter0_d_31_1165" x="28.3712" y="34.9307" width="63.389" height="63.389" filterUnits="userSpaceOnUse" color-interpolation-filters="sRGB">
<feFlood flood-opacity="0" result="BackgroundImageFix"/>
<feColorMatrix in="SourceAlpha" type="matrix" values="0 0 0 0 0 0 0 0 0 0 0 0 0 0 0 0 0 0 127 0" result="hardAlpha"/>
<feOffset dy="12.2316"/>
<feGaussianBlur stdDeviation="6.11582"/>
<feComposite in2="hardAlpha" operator="out"/>
<feColorMatrix type="matrix" values="0 0 0 0 0 0 0 0 0 0 0 0 0 0 0 0 0 0 0.1 0"/>
<feBlend mode="normal" in2="BackgroundImageFix" result="effect1_dropShadow_31_1165"/>
<feBlend mode="normal" in="SourceGraphic" in2="effect1_dropShadow_31_1165" result="shape"/>
</filter>
</defs>
</svg>
