<svg width="76" height="76" viewBox="0 0 76 76" fill="none" xmlns="http://www.w3.org/2000/svg">
<g filter="url(#filter0_bi_15_693)">
<circle cx="38" cy="38" r="38" fill="#1D9BF0" fill-opacity="0.09"/>
</g>
<g filter="url(#filter1_bi_15_693)">
<circle cx="38" cy="38" r="30.4" fill="#1D9BF0" fill-opacity="0.06"/>
</g>
<path d="M55.7919 26.6648C55.8194 27.1499 55.8194 27.6349 55.8194 28.1244C55.8194 43.0406 46.5287 60.2433 29.5402 60.2433V60.2344C24.5217 60.2433 19.6075 58.4864 15.3828 55.1738C16.1125 55.2811 16.8459 55.3346 17.5811 55.3368C21.74 55.3413 25.78 53.6357 29.0518 50.4953C25.0996 50.4035 21.6339 47.2542 20.4232 42.6561C21.8077 42.9824 23.2342 42.9154 24.593 42.4616C20.2842 41.3976 17.1843 36.7705 17.1843 31.3969C17.1843 31.3477 17.1843 31.3008 17.1843 31.2539C18.4681 32.1279 19.9056 32.6129 21.376 32.6665C17.3178 29.3516 16.0668 22.753 18.5175 17.594C23.2068 24.6463 30.1254 28.9336 37.5525 29.3874C36.8081 25.4667 37.825 21.3582 40.2244 18.6021C43.9445 14.3282 49.795 14.5473 53.2917 19.0916C55.3603 18.5931 57.3429 17.6655 59.157 16.3511C58.4676 18.9642 57.0244 21.1839 55.0968 22.5943C56.9275 22.3305 58.7163 21.7315 60.4007 20.8172C59.1606 23.0883 57.5988 25.0665 55.7919 26.6648Z" fill="#1D9BF0"/>
<defs>
<filter id="filter0_bi_15_693" x="-40" y="-40" width="156" height="156" filterUnits="userSpaceOnUse" color-interpolation-filters="sRGB">
<feFlood flood-opacity="0" result="BackgroundImageFix"/>
<feGaussianBlur in="BackgroundImageFix" stdDeviation="20"/>
<feComposite in2="SourceAlpha" operator="in" result="effect1_backgroundBlur_15_693"/>
<feBlend mode="normal" in="SourceGraphic" in2="effect1_backgroundBlur_15_693" result="shape"/>
<feColorMatrix in="SourceAlpha" type="matrix" values="0 0 0 0 0 0 0 0 0 0 0 0 0 0 0 0 0 0 127 0" result="hardAlpha"/>
<feOffset dy="1"/>
<feGaussianBlur stdDeviation="0.5"/>
<feComposite in2="hardAlpha" operator="arithmetic" k2="-1" k3="1"/>
<feColorMatrix type="matrix" values="0 0 0 0 1 0 0 0 0 1 0 0 0 0 1 0 0 0 0.5 0"/>
<feBlend mode="normal" in2="shape" result="effect2_innerShadow_15_693"/>
</filter>
<filter id="filter1_bi_15_693" x="-32.4" y="-32.4" width="140.8" height="140.8" filterUnits="userSpaceOnUse" color-interpolation-filters="sRGB">
<feFlood flood-opacity="0" result="BackgroundImageFix"/>
<feGaussianBlur in="BackgroundImageFix" stdDeviation="20"/>
<feComposite in2="SourceAlpha" operator="in" result="effect1_backgroundBlur_15_693"/>
<feBlend mode="normal" in="SourceGraphic" in2="effect1_backgroundBlur_15_693" result="shape"/>
<feColorMatrix in="SourceAlpha" type="matrix" values="0 0 0 0 0 0 0 0 0 0 0 0 0 0 0 0 0 0 127 0" result="hardAlpha"/>
<feOffset dy="1"/>
<feGaussianBlur stdDeviation="0.5"/>
<feComposite in2="hardAlpha" operator="arithmetic" k2="-1" k3="1"/>
<feColorMatrix type="matrix" values="0 0 0 0 1 0 0 0 0 1 0 0 0 0 1 0 0 0 0.5 0"/>
<feBlend mode="normal" in2="shape" result="effect2_innerShadow_15_693"/>
</filter>
</defs>
</svg>
