<svg width="100" height="100" viewBox="0 0 100 100" fill="none" xmlns="http://www.w3.org/2000/svg">
<g filter="url(#filter0_bi_15_681)">
<circle cx="50" cy="50" r="50" fill="#25F4EE" fill-opacity="0.07"/>
</g>
<g filter="url(#filter1_bi_15_681)">
<circle cx="50" cy="50" r="40" fill="black" fill-opacity="0.08"/>
</g>
<path d="M43.265 43.6296V41.2915C42.3519 41.163 41.4297 41.0926 40.5053 41.0809C31.5561 41.0639 23.6333 46.2188 20.9458 53.8064C18.2584 61.3939 21.4306 69.6538 28.7762 74.1967C26.0825 71.6342 24.2808 68.4334 23.5886 64.9809C22.8963 61.5282 23.3431 57.9713 24.875 54.7394C26.4069 51.5074 28.9584 48.7387 32.2215 46.7674C35.4846 44.7961 39.3199 43.7064 43.2643 43.6299L43.265 43.6296Z" fill="#25F4EE"/>
<path d="M43.7611 70.1146C48.7646 70.1088 52.8774 66.605 53.0965 62.1617V22.5106H61.2457C61.0794 21.6821 61 20.8416 61.0087 20H49.8622V59.6127C49.6769 64.0783 45.5542 67.6158 40.5269 67.6233C39.0245 67.6117 37.5466 67.2833 36.215 66.665C37.078 67.7279 38.2115 68.5946 39.5228 69.1938C40.8343 69.7933 42.2865 70.1088 43.7611 70.1146ZM76.4671 35.9637V33.7598C73.468 33.7609 70.5351 32.9742 68.0371 31.4986C70.2271 33.7614 73.1858 35.3288 76.4671 35.9637Z" fill="#25F4EE"/>
<path d="M68.0371 31.4986C65.5764 29.0079 64.22 25.806 64.2212 22.4912H61.2457C61.63 24.324 62.4304 26.0678 63.5981 27.6165C64.7658 29.1651 66.2762 30.486 68.0371 31.4986ZM40.5053 50.9886C38.4185 50.9981 36.3951 51.6273 34.7568 52.7764C33.1185 53.9255 31.9595 55.5284 31.4638 57.3303C30.9682 59.1322 31.1644 61.0297 32.0213 62.7212C32.8782 64.4125 34.3467 65.8008 36.1932 66.665C35.1836 65.4258 34.579 63.9629 34.4462 62.4375C34.3135 60.9123 34.6576 59.384 35.4407 58.0217C36.2238 56.6593 37.4153 55.5159 38.8837 54.7178C40.352 53.9196 42.04 53.4978 43.7611 53.499C44.6968 53.5099 45.626 53.6393 46.5205 53.8835V43.802C45.6069 43.6803 44.6849 43.6163 43.7611 43.6104H43.265V51.276C42.3657 51.0616 41.436 50.9648 40.5053 50.9886Z" fill="#FE2C55"/>
<path d="M76.467 35.9637V43.6296C70.9146 43.62 65.5065 42.0577 61.0085 39.1642V59.3059C60.9847 69.3563 51.812 77.493 40.5052 77.493C36.306 77.4996 32.2078 76.348 28.7761 74.1967C31.5745 76.8721 35.2144 78.7363 39.2217 79.5467C43.229 80.3571 47.418 80.0763 51.2431 78.74C55.0682 77.4042 58.352 75.0755 60.6668 72.0567C62.9816 69.0384 64.2201 65.47 64.2211 61.8171V41.7324C68.734 44.6069 74.149 46.1487 79.7009 46.1402V36.2697C78.6139 36.2668 77.5301 36.1643 76.467 35.9637Z" fill="#FE2C55"/>
<path d="M61.0086 59.3059V39.1642C65.5202 42.0413 70.9358 43.5833 76.4886 43.572V35.9064C73.2083 35.2906 70.2421 33.7436 68.0371 31.4986C66.2762 30.486 64.7658 29.1651 63.598 27.6165C62.4304 26.0678 61.63 24.324 61.2457 22.4912H53.0965V62.162C53.0171 63.8887 52.3346 65.5508 51.1438 66.9166C49.9529 68.2829 48.3129 69.2854 46.4516 69.785C44.5903 70.2841 42.6002 70.2562 40.7578 69.7037C38.9154 69.1516 37.3124 68.1029 36.1713 66.7037C34.3245 65.8395 32.8558 64.4512 31.9986 62.76C31.1415 61.0683 30.9452 59.1707 31.4408 57.3686C31.9365 55.5665 33.0958 53.9634 34.7343 52.8143C36.3728 51.6653 38.3965 51.036 40.4835 51.0268C41.4195 51.0343 42.3493 51.1635 43.2432 51.4103V43.7444C39.2775 43.8042 35.417 44.8883 32.1325 46.8646C28.848 48.8409 26.2813 51.624 24.7455 54.8745C23.2096 58.125 22.7709 61.7025 23.4829 65.1708C24.1948 68.6391 26.0267 71.8483 28.755 74.407C32.2204 76.4875 36.3244 77.5654 40.5053 77.4929C51.812 77.4929 60.9848 69.3562 61.0086 59.3059Z" fill="black"/>
<defs>
<filter id="filter0_bi_15_681" x="-40" y="-40" width="180" height="180" filterUnits="userSpaceOnUse" color-interpolation-filters="sRGB">
<feFlood flood-opacity="0" result="BackgroundImageFix"/>
<feGaussianBlur in="BackgroundImageFix" stdDeviation="20"/>
<feComposite in2="SourceAlpha" operator="in" result="effect1_backgroundBlur_15_681"/>
<feBlend mode="normal" in="SourceGraphic" in2="effect1_backgroundBlur_15_681" result="shape"/>
<feColorMatrix in="SourceAlpha" type="matrix" values="0 0 0 0 0 0 0 0 0 0 0 0 0 0 0 0 0 0 127 0" result="hardAlpha"/>
<feOffset dy="1"/>
<feGaussianBlur stdDeviation="0.5"/>
<feComposite in2="hardAlpha" operator="arithmetic" k2="-1" k3="1"/>
<feColorMatrix type="matrix" values="0 0 0 0 1 0 0 0 0 1 0 0 0 0 1 0 0 0 0.5 0"/>
<feBlend mode="normal" in2="shape" result="effect2_innerShadow_15_681"/>
</filter>
<filter id="filter1_bi_15_681" x="-30" y="-30" width="160" height="160" filterUnits="userSpaceOnUse" color-interpolation-filters="sRGB">
<feFlood flood-opacity="0" result="BackgroundImageFix"/>
<feGaussianBlur in="BackgroundImageFix" stdDeviation="20"/>
<feComposite in2="SourceAlpha" operator="in" result="effect1_backgroundBlur_15_681"/>
<feBlend mode="normal" in="SourceGraphic" in2="effect1_backgroundBlur_15_681" result="shape"/>
<feColorMatrix in="SourceAlpha" type="matrix" values="0 0 0 0 0 0 0 0 0 0 0 0 0 0 0 0 0 0 127 0" result="hardAlpha"/>
<feOffset dy="1"/>
<feGaussianBlur stdDeviation="0.5"/>
<feComposite in2="hardAlpha" operator="arithmetic" k2="-1" k3="1"/>
<feColorMatrix type="matrix" values="0 0 0 0 1 0 0 0 0 1 0 0 0 0 1 0 0 0 0.5 0"/>
<feBlend mode="normal" in2="shape" result="effect2_innerShadow_15_681"/>
</filter>
</defs>
</svg>
