<svg width="1037" height="644" viewBox="0 0 1037 644" fill="none" xmlns="http://www.w3.org/2000/svg">
<path d="M563 23.4999C622.021 59.4419 721.245 -18.5015 748.5 44.9999C797 158 924.425 -52.7146 1015.5 16.4999C1134.12 106.646 657 405 812.5 394C886.523 388.764 664.167 160.783 624.5 223.5C587.5 282 675.361 589.511 624.5 617.5M624.5 617.5C540 664 516.8 14 332 54C147.2 94 238.177 165.732 163.5 270.5C63.2836 411.1 -78.3248 603.821 60.5001 640C143 661.5 172.14 439.109 298 441C445.305 443.213 624.5 617.5 624.5 617.5Z" stroke="#44C079" stroke-width="4"/>
</svg>
